<?xml version="1.0" encoding="UTF-8" standalone="no"?>
<!DOCTYPE svg PUBLIC "-//W3C//DTD SVG 1.1//EN" "http://www.w3.org/Graphics/SVG/1.1/DTD/svg11.dtd">
<svg xmlns="http://www.w3.org/2000/svg" version="1.1" viewBox="0.00 0.00 170.00 127.00">
<path fill="#000000" d="
  M 170.00 30.45
  L 170.00 31.29
  C 168.92 34.04 169.06 36.75 167.01 39.33
  A 0.70 0.70 0.0 0 1 166.20 39.56
  Q 164.38 38.88 162.73 39.79
  A 1.76 1.74 62.6 0 1 160.31 39.01
  L 158.47 35.23
  Q 158.24 34.76 157.72 34.66
  Q 152.22 33.60 147.83 30.16
  A 0.76 0.76 0.0 0 0 146.67 30.46
  Q 142.52 39.98 139.22 49.70
  Q 138.83 50.86 136.05 54.41
  A 1.49 1.47 -27.3 0 0 135.75 55.33
  C 135.89 61.32 135.72 66.27 133.79 72.01
  A 1.53 1.50 -44.4 0 0 133.77 72.97
  Q 136.88 82.92 142.66 91.57
  C 144.00 93.57 144.13 96.73 145.35 99.07
  Q 147.56 103.32 150.32 107.22
  C 153.00 111.03 156.10 116.58 159.97 120.41
  A 0.95 0.94 67.6 0 1 159.30 122.03
  C 152.07 121.94 147.96 123.20 148.78 114.00
  A 0.58 0.58 0.0 0 0 148.27 113.37
  C 144.32 112.89 145.27 109.94 143.95 107.62
  Q 142.89 105.73 141.66 103.93
  C 140.54 102.30 140.15 100.28 138.79 98.63
  C 132.91 91.56 129.96 83.97 121.92 78.82
  Q 121.56 78.59 121.33 78.95
  Q 116.25 87.03 115.74 94.49
  C 115.40 99.39 115.09 100.85 111.13 104.06
  C 107.71 106.84 106.11 110.64 103.30 113.45
  Q 97.64 119.13 92.60 125.07
  A 1.07 1.07 0.0 0 1 90.71 124.41
  L 90.42 115.31
  A 2.31 2.30 -84.1 0 1 93.27 112.99
  L 96.11 113.68
  A 0.71 0.70 20.2 0 0 96.89 113.33
  L 98.24 110.73
  Q 98.47 110.31 98.84 110.01
  C 101.91 107.55 104.82 105.06 106.13 101.12
  C 107.37 97.39 109.10 93.68 108.82 89.70
  Q 108.41 83.87 107.59 77.93
  A 0.55 0.55 0.0 0 0 106.96 77.47
  Q 99.93 78.59 92.93 78.07
  C 84.23 77.43 74.70 73.31 66.06 70.21
  A 0.45 0.44 -83.4 0 0 65.47 70.68
  Q 66.20 76.93 66.23 83.31
  C 66.26 88.94 64.19 97.53 67.21 102.90
  Q 70.70 109.12 75.54 114.36
  C 77.01 115.95 76.64 117.22 78.76 118.59
  Q 82.24 120.84 84.67 124.62
  A 1.12 1.12 0.0 0 1 84.32 126.17
  C 82.34 127.38 79.69 126.32 77.43 127.00
  L 75.71 127.00
  L 74.15 126.30
  A 0.76 0.75 15.6 0 1 73.71 125.53
  C 73.90 123.73 74.74 120.29 71.48 120.58
  A 1.86 1.86 0.0 0 1 69.54 119.27
  C 68.86 117.02 68.74 115.20 67.14 113.33
  C 63.59 109.20 61.35 105.27 57.25 101.56
  C 53.57 98.22 54.77 91.43 54.67 86.92
  Q 54.61 84.57 52.37 79.82
  Q 52.13 79.31 51.77 79.74
  C 46.70 85.76 40.97 88.70 36.39 94.27
  C 32.05 99.57 30.56 108.39 29.39 115.02
  C 28.68 118.97 20.14 123.64 16.88 125.94
  A 0.85 0.85 0.0 0 1 15.54 125.26
  C 15.48 121.76 15.00 113.19 21.00 114.80
  C 25.10 115.89 23.54 110.98 24.62 108.93
  C 27.34 103.76 28.11 98.31 27.46 92.50
  C 27.35 91.52 27.84 90.22 28.65 89.46
  C 32.42 85.94 36.55 83.26 36.82 77.65
  C 36.96 74.86 35.47 71.37 34.91 68.28
  A 0.41 0.40 53.1 0 0 34.15 68.17
  C 32.42 71.69 34.25 75.08 31.91 78.13
  A 0.32 0.32 0.0 0 1 31.35 77.82
  Q 31.90 76.39 31.95 74.75
  Q 31.98 73.92 31.01 73.99
  A 0.54 0.54 0.0 0 0 30.51 74.55
  C 30.71 81.65 23.36 80.84 24.66 87.09
  Q 24.80 87.75 24.16 87.52
  Q 22.05 86.75 21.31 89.08
  A 0.71 0.71 0.0 0 1 20.54 89.57
  Q 17.84 89.24 17.76 92.27
  A 0.38 0.38 0.0 0 1 17.11 92.53
  L 16.50 91.92
  A 0.34 0.33 -46.7 0 0 16.01 91.94
  C 13.57 94.75 14.86 98.71 12.49 102.00
  A 0.16 0.16 0.0 0 1 12.21 101.86
  L 13.13 99.15
  A 0.39 0.38 67.0 0 0 12.42 98.86
  L 11.13 101.64
  A 2.11 2.04 -8.2 0 1 10.55 102.39
  Q 8.79 103.86 7.72 106.20
  Q 7.58 106.51 7.19 106.56
  Q 6.76 106.61 6.87 106.19
  Q 7.29 104.58 7.67 102.98
  Q 7.81 102.40 7.35 102.27
  A 0.80 0.80 0.0 0 0 6.36 102.89
  C 5.81 105.72 2.11 108.40 0.00 110.40
  L 0.00 108.43
  Q 2.24 102.47 2.81 96.20
  A 0.20 0.19 -6.9 0 0 2.55 96.00
  L 1.86 96.26
  Q 1.13 96.52 1.30 95.77
  Q 2.95 88.09 7.80 82.23
  C 11.14 78.21 18.47 74.67 19.50 69.41
  C 20.50 64.36 20.63 58.71 24.00 54.54
  Q 26.04 52.02 26.70 50.79
  C 29.93 44.69 31.35 42.13 39.03 43.29
  A 1.24 1.24 0.0 0 0 39.93 43.09
  C 45.09 39.57 51.19 36.30 57.64 36.50
  Q 66.42 36.77 80.77 38.49
  Q 89.85 39.57 98.56 35.32
  Q 98.65 35.27 107.26 29.77
  Q 111.63 26.97 116.93 24.70
  Q 118.58 23.99 119.58 22.24
  Q 119.85 21.77 120.36 21.57
  Q 124.05 20.15 126.05 16.82
  Q 126.33 16.36 126.80 16.12
  C 131.51 13.76 133.60 9.41 139.79 7.73
  A 0.50 0.50 0.0 0 0 140.16 7.20
  L 139.68 1.66
  A 0.43 0.42 -73.9 0 1 140.36 1.28
  L 144.70 4.65
  Q 145.07 4.95 145.43 4.63
  L 146.42 3.74
  Q 146.84 3.36 147.37 3.55
  L 151.16 4.95
  Q 151.52 5.08 151.84 4.88
  Q 154.34 3.29 155.29 0.54
  A 0.51 0.50 26.4 0 1 156.05 0.29
  C 158.15 1.69 156.29 6.41 155.73 8.47
  A 2.27 2.27 0.0 0 0 156.55 10.86
  C 158.47 12.31 160.92 13.08 160.76 15.93
  Q 160.74 16.41 160.95 16.85
  Q 164.59 24.33 170.00 30.45
  Z"
/>
</svg>
