<?xml version="1.0" standalone="no"?>
<!DOCTYPE svg PUBLIC "-//W3C//DTD SVG 20010904//EN"
 "http://www.w3.org/TR/2001/REC-SVG-20010904/DTD/svg10.dtd">
<svg version="1.0" xmlns="http://www.w3.org/2000/svg"
 width="900.000000pt" height="900.000000pt" viewBox="0 0 900.000000 900.000000"
 preserveAspectRatio="xMidYMid meet">
<metadata>
Created by potrace 1.14, written by Peter Selinger 2001-2017
</metadata>
<g transform="translate(0.000000,900.000000) scale(0.100000,-0.100000)"
fill="#000000" stroke="none">
<path d="M4099 8856 c-2 -3 -69 -14 -149 -25 -217 -31 -462 -79 -477 -95 -12
-12 10 -26 33 -20 29 7 30 4 4 -38 -26 -44 -134 -77 -232 -71 -73 4 -194 -17
-261 -46 -23 -10 -97 -54 -164 -97 -67 -44 -163 -105 -214 -137 -53 -33 -93
-66 -96 -78 -3 -12 -28 -32 -62 -48 -90 -46 -274 -194 -441 -356 -173 -167
-315 -285 -447 -371 -108 -71 -198 -160 -328 -324 -55 -69 -130 -161 -168
-205 -38 -44 -86 -105 -107 -135 -61 -90 -164 -277 -220 -400 -29 -63 -96
-205 -150 -315 -317 -646 -345 -733 -394 -1230 -28 -276 -23 -437 20 -654 5
-24 2 -44 -11 -67 -16 -31 -17 -42 -5 -126 6 -51 20 -138 31 -193 53 -283 83
-378 122 -389 50 -14 113 -156 123 -275 8 -97 46 -211 84 -253 17 -18 33 -42
36 -53 4 -11 10 -22 13 -25 14 -10 53 -85 68 -129 15 -44 50 -103 66 -110 4
-1 29 -23 55 -47 26 -24 58 -55 72 -68 14 -12 45 -44 69 -70 36 -40 42 -52 37
-77 -4 -23 4 -45 37 -102 63 -105 137 -216 151 -225 7 -4 69 -67 139 -140 112
-117 127 -137 127 -167 0 -28 15 -52 79 -132 147 -181 294 -308 757 -649 160
-118 410 -266 510 -302 27 -10 76 -35 109 -57 218 -141 581 -256 1045 -330 52
-9 149 -24 215 -35 199 -32 411 -26 635 17 19 4 46 6 60 4 24 -3 78 6 210 34
36 8 94 19 130 25 308 50 471 98 637 186 46 24 89 44 96 44 7 0 51 18 98 41
69 33 91 40 122 35 27 -5 48 -1 80 15 63 33 283 184 452 312 l150 114 -3 51
c-2 28 2 60 8 72 6 12 64 60 128 108 93 69 125 87 155 89 52 3 96 32 207 137
184 176 283 296 450 546 46 69 107 154 135 190 28 36 71 94 96 130 24 36 49
68 56 73 10 6 68 92 111 162 6 11 37 61 69 110 106 168 396 794 439 950 14 50
30 104 35 120 79 238 89 322 94 758 3 214 7 392 10 397 7 11 -12 229 -26 300
-19 97 -79 263 -100 278 -34 24 -70 90 -63 116 14 57 -98 330 -145 353 -34 16
-42 33 -35 74 5 32 -8 63 -95 242 -56 112 -108 211 -117 218 -9 8 -32 46 -50
86 -18 40 -37 73 -43 73 -6 0 -56 69 -112 153 -56 83 -114 166 -129 182 -15
17 -37 48 -50 70 -36 60 -226 300 -300 378 -95 100 -137 132 -155 117 -23 -19
-68 4 -123 64 -26 28 -81 79 -123 113 -43 35 -132 114 -198 177 -122 116 -266
230 -352 280 l-46 26 -15 -21 -14 -22 -32 23 c-33 24 -48 52 -43 82 7 51 -477
280 -854 403 -164 53 -467 120 -685 150 -144 20 -817 45 -831 31z m2119 -2582
l22 -6 0 -594 c0 -469 -3 -594 -12 -594 -43 0 -288 -32 -314 -40 -41 -14 -57
-50 -45 -98 6 -20 19 -93 31 -162 11 -69 27 -154 35 -190 8 -36 21 -112 30
-170 9 -58 21 -123 27 -145 5 -22 21 -101 34 -175 13 -74 37 -207 53 -295 16
-88 43 -234 60 -325 16 -91 34 -185 40 -210 5 -25 17 -92 26 -150 9 -58 19
-113 21 -122 5 -17 -6 -18 -138 -18 -100 0 -149 4 -160 13 -23 17 -21 12 -128
492 -15 72 -43 193 -60 270 -18 77 -45 196 -60 265 -16 69 -42 187 -59 263
-49 217 -88 393 -115 517 -33 150 -56 232 -68 247 -14 17 -348 6 -367 -13 -13
-12 -12 -71 3 -451 26 -671 30 -901 17 -1058 -6 -77 -14 -231 -18 -342 l-6
-203 -81 0 c-45 0 -124 3 -177 6 l-97 7 -6 886 c-3 487 -10 938 -15 1001 -15
174 -25 884 -16 1152 6 207 9 238 24 241 25 7 1493 7 1519 1z m-3307 -65 c18
-9 17 -5 43 -319 16 -194 37 -562 57 -965 5 -115 10 -510 10 -877 1 -500 4
-667 12 -670 7 -3 179 -1 382 3 204 4 472 8 598 8 l227 1 0 -220 c0 -207 -1
-220 -19 -230 -28 -15 -1627 -14 -1637 1 -8 13 -19 3250 -11 3271 4 12 32 14
164 10 87 -2 165 -8 174 -13z"/>
<path d="M5044 5807 c-2 -7 -3 -69 -2 -138 l3 -124 405 0 405 0 3 124 c2 82
-1 128 -9 137 -16 20 -797 21 -805 1z"/>
</g>
</svg>
