<?xml version="1.0" encoding="UTF-8" standalone="no"?>
<!DOCTYPE svg PUBLIC "-//W3C//DTD SVG 1.1//EN" "http://www.w3.org/Graphics/SVG/1.1/DTD/svg11.dtd">
<svg xmlns="http://www.w3.org/2000/svg" version="1.1" viewBox="0.00 0.00 296.00 262.00">
<g stroke-width="2.00" fill="none" stroke-linecap="butt">
<path stroke="#49494a" vector-effect="non-scaling-stroke" d="
  M 119.06 78.01
  L 114.21 82.34
  Q 113.95 82.57 114.24 82.77
  L 114.53 82.97"
/>
<path stroke="#49494a" vector-effect="non-scaling-stroke" d="
  M 110.71 84.33
  Q 109.49 83.42 109.00 85.00
  Q 108.46 86.76 110.19 87.85"
/>
<path stroke="#59585a" vector-effect="non-scaling-stroke" d="
  M 195.4657 67.9282
  A 0.79 0.79 0.0 0 0 195.1521 66.8559
  L 88.3859 8.4031
  A 0.79 0.79 0.0 0 0 87.3135 8.7167
  L 87.2943 8.7518
  A 0.79 0.79 0.0 0 0 87.6079 9.8241
  L 194.3741 68.2769
  A 0.79 0.79 0.0 0 0 195.4465 67.9633
  L 195.4657 67.9282"
/>
<path stroke="#59585a" vector-effect="non-scaling-stroke" d="
  M 206.8900 8.6707
  A 0.78 0.78 0.0 0 0 205.8312 8.3611
  L 152.3604 37.6355
  A 0.78 0.78 0.0 0 0 152.0508 38.6942
  L 152.0700 38.7293
  A 0.78 0.78 0.0 0 0 153.1288 39.0389
  L 206.5996 9.7645
  A 0.78 0.78 0.0 0 0 206.9092 8.7058
  L 206.8900 8.6707"
/>
<path stroke="#49494a" vector-effect="non-scaling-stroke" d="
  M 190.69 76.84
  L 201.76 83.20
  A 0.60 0.59 -60.6 0 1 201.98 84.00
  L 197.50 92.00
  A 0.89 0.89 0.0 0 1 195.99 92.08
  Q 195.33 91.15 194.21 91.24
  Q 193.74 91.27 193.48 91.66
  L 191.76 94.20
  A 0.84 0.82 19.0 0 1 191.00 94.56
  Q 187.92 94.29 186.30 91.69
  A 0.81 0.80 -44.7 0 1 186.31 90.81
  L 187.72 88.65
  A 0.77 0.76 36.0 0 0 187.55 87.63
  L 186.68 86.94
  Q 186.16 86.53 185.81 87.08
  C 181.84 93.34 189.86 96.51 193.89 98.67
  A 1.35 1.35 0.0 0 0 195.70 98.13
  L 210.05 71.89
  Q 210.35 71.32 209.83 70.95
  Q 204.75 67.34 198.49 66.81
  A 0.36 0.36 0.0 0 0 198.29 67.49
  L 207.25 72.15
  A 1.05 1.05 0.0 0 1 207.69 73.58
  L 203.00 82.24
  Q 202.73 82.75 202.22 82.48
  L 191.00 76.49"
/>
<path stroke="#59585a" vector-effect="non-scaling-stroke" d="
  M 191.00 76.49
  Q 190.86 75.42 190.02 74.96
  Q 137.13 46.05 84.35 17.13
  Q 83.73 16.79 83.05 16.99
  Q 82.51 17.14 82.51 17.52
  Q 82.51 18.06 82.99 18.32
  L 189.70 76.58
  A 1.18 1.14 58.2 0 0 190.25 76.72
  Q 190.56 76.72 190.69 76.84"
/>
<path stroke="#a2a1a3" vector-effect="non-scaling-stroke" d="
  M 191.00 76.49
  Q 190.89 76.32 190.69 76.84"
/>
<path stroke="#59585a" vector-effect="non-scaling-stroke" d="
  M 211.3920 17.1230
  A 0.77 0.77 0.0 0 0 210.3468 16.8174
  L 162.5248 42.9992
  A 0.77 0.77 0.0 0 0 162.2192 44.0444
  L 162.2480 44.0970
  A 0.77 0.77 0.0 0 0 163.2932 44.4026
  L 211.1152 18.2208
  A 0.77 0.77 0.0 0 0 211.4208 17.1756
  L 211.3920 17.1230"
/>
<path stroke="#49494a" vector-effect="non-scaling-stroke" d="
  M 108.07 35.68
  L 100.47 31.31
  Q 99.98 31.03 100.00 31.60
  Q 100.01 31.80 99.99 32.03
  A 0.88 0.87 16.4 0 0 100.45 32.86
  L 108.11 36.91
  Q 108.65 37.20 109.09 36.78
  Q 110.09 35.85 111.98 36.26
  Q 112.58 36.39 112.72 36.98
  L 113.27 39.32
  A 0.86 0.84 7.6 0 0 113.69 39.86
  Q 141.40 54.94 168.83 70.25
  C 174.34 73.33 181.56 75.46 188.24 79.27
  Q 188.49 79.41 188.72 79.29
  Q 189.17 79.05 188.77 78.74
  C 184.25 75.30 179.10 74.34 174.68 71.96
  Q 144.79 55.86 115.09 39.38
  Q 114.63 39.12 114.55 38.61
  C 114.15 36.06 111.40 33.80 108.97 35.63
  Q 108.54 35.95 108.07 35.68"
/>
<path stroke="#49494a" vector-effect="non-scaling-stroke" d="
  M 179.96 38.88
  Q 173.51 42.35 167.18 45.92
  Q 166.88 46.09 166.77 46.46
  A 0.42 0.42 0.0 0 0 167.38 46.95
  L 180.83 39.53
  A 0.82 0.81 67.0 0 0 181.21 38.57
  Q 180.55 36.49 182.77 35.84
  A 0.93 0.90 -36.0 0 1 183.53 35.95
  L 184.89 36.83
  Q 185.34 37.12 185.82 36.89
  Q 189.59 35.05 193.21 32.98
  Q 193.94 32.56 194.18 31.77
  Q 194.46 30.88 193.65 31.34
  L 185.85 35.81
  Q 185.51 36.01 185.20 35.77
  L 184.09 34.88
  Q 183.69 34.56 183.24 34.81
  L 179.48 36.92
  A 0.52 0.52 0.0 0 0 179.46 37.82
  L 179.98 38.13
  A 0.43 0.43 0.0 0 1 179.96 38.88"
/>
<path stroke="#59585a" vector-effect="non-scaling-stroke" d="
  M 126.9372 52.2759
  A 0.63 0.63 0.0 0 0 126.0821 52.0259
  L 98.6976 67.0184
  A 0.63 0.63 0.0 0 0 98.4475 67.8736
  L 98.5628 68.0841
  A 0.63 0.63 0.0 0 0 99.4179 68.3341
  L 126.8024 53.3416
  A 0.63 0.63 0.0 0 0 127.0525 52.4864
  L 126.9372 52.2759"
/>
<path stroke="#59585a" vector-effect="non-scaling-stroke" d="
  M 137.0273 57.4419
  A 0.40 0.40 0.0 0 0 136.4844 57.2831
  L 103.1353 75.5412
  A 0.40 0.40 0.0 0 0 102.9765 76.0841
  L 103.3127 76.6981
  A 0.40 0.40 0.0 0 0 103.8556 76.8569
  L 137.2047 58.5988
  A 0.40 0.40 0.0 0 0 137.3635 58.0559
  L 137.0273 57.4419"
/>
<path stroke="#49494a" vector-effect="non-scaling-stroke" d="
  M 106.17 78.90
  C 108.50 78.02 111.05 75.70 113.28 75.26
  C 115.07 74.91 116.48 74.72 118.12 73.82
  Q 129.83 67.43 141.56 61.11
  A 0.48 0.48 0.0 0 0 141.51 60.24
  Q 141.23 60.13 140.83 60.35
  C 132.44 64.96 122.76 71.52 113.71 74.32
  Q 109.47 75.64 105.93 78.47
  Q 104.67 79.47 106.17 78.90"
/>
<path stroke="#49494a" vector-effect="non-scaling-stroke" d="
  M 91.10 82.30
  L 86.31 73.36
  Q 85.99 72.77 86.58 72.45
  L 95.75 67.50
  A 0.36 0.36 0.0 0 0 95.56 66.82
  Q 89.60 67.14 84.71 70.51
  Q 83.58 71.28 84.24 72.48
  L 98.65 98.53
  A 0.81 0.81 0.0 0 0 99.71 98.87
  C 104.08 96.79 111.81 93.71 108.38 87.21
  A 0.72 0.72 0.0 0 0 107.40 86.92
  L 106.54 87.39
  A 0.72 0.72 0.0 0 0 106.26 88.37
  L 107.78 91.04
  A 0.86 0.85 -39.0 0 1 107.67 92.03
  Q 105.89 94.04 103.25 94.57
  A 0.88 0.87 -21.8 0 1 102.35 94.19
  L 100.47 91.24
  A 0.55 0.54 -30.1 0 0 99.75 91.05
  L 97.50 92.23
  A 0.71 0.70 61.2 0 1 96.56 91.95
  L 92.07 84.13
  A 0.66 0.65 60.7 0 1 92.32 83.23
  L 101.84 77.92
  Q 102.20 77.72 101.94 77.39
  Q 101.73 77.13 101.50 77.25
  Q 95.59 80.34 91.98 82.53
  Q 91.41 82.88 91.10 82.30"
/>
<path stroke="#49494a" vector-effect="non-scaling-stroke" d="
  M 46.19 94.69
  A 0.98 0.97 60.6 0 1 46.57 93.32
  L 82.04 74.64
  Q 82.44 74.43 82.68 74.81
  Q 83.03 75.33 83.66 75.26
  A 0.62 0.62 0.0 0 0 84.16 74.39
  L 83.35 72.53
  Q 83.16 72.09 82.74 72.32
  L 44.66 93.22
  A 0.92 0.92 0.0 0 0 44.24 94.37
  Q 44.87 95.96 46.18 97.04
  Q 46.74 97.50 46.76 96.78
  Q 46.79 95.67 46.19 94.69"
/>
<path stroke="#49494a" vector-effect="non-scaling-stroke" d="
  M 249.57 93.25
  L 211.99 72.72
  A 1.58 1.30 -3.2 0 0 209.88 74.66
  Q 210.63 75.39 211.52 74.73
  A 0.65 0.64 -48.0 0 1 212.20 74.69
  L 247.63 93.46
  Q 248.18 93.76 247.95 94.34
  L 247.00 96.79
  A 0.55 0.55 0.0 0 0 247.97 97.30
  L 249.87 94.47
  A 0.85 0.85 0.0 0 0 249.57 93.25"
/>
<path stroke="#59585a" vector-effect="non-scaling-stroke" d="
  M 60.94 89.52
  C 66.10 90.52 78.92 82.04 83.81 79.32
  Q 84.80 78.77 84.43 78.11
  A 0.86 0.86 0.0 0 0 83.24 77.78
  C 78.17 80.70 66.61 88.39 60.95 87.71
  A 0.78 0.77 88.0 0 0 60.10 88.63
  Q 60.24 89.39 60.94 89.52"
/>
<path stroke="#59585a" vector-effect="non-scaling-stroke" d="
  M 233.35 87.82
  C 226.70 87.92 216.42 80.98 210.50 77.69
  A 0.53 0.52 8.4 0 0 209.73 78.26
  C 209.97 79.38 211.18 79.67 211.95 80.12
  Q 218.68 84.05 225.56 87.69
  C 227.43 88.68 233.31 91.54 234.02 88.66
  A 0.68 0.68 0.0 0 0 233.35 87.82"
/>
<path stroke="#59585a" vector-effect="non-scaling-stroke" d="
  M 90.6131 87.3077
  A 1.70 0.88 55.9 0 0 90.3887 85.4066
  A 1.70 0.88 55.9 0 0 88.7069 84.4923
  A 1.70 0.88 55.9 0 0 88.9313 86.3934
  A 1.70 0.88 55.9 0 0 90.6131 87.3077"
/>
<path stroke="#59585a" vector-effect="non-scaling-stroke" d="
  M 203.4625 87.3409
  A 1.67 0.80 121.7 0 0 205.0206 86.3404
  A 1.67 0.80 121.7 0 0 205.2175 84.4991
  A 1.67 0.80 121.7 0 0 203.6594 85.4996
  A 1.67 0.80 121.7 0 0 203.4625 87.3409"
/>
<path stroke="#49494a" vector-effect="non-scaling-stroke" d="
  M 69.55 105.59
  L 69.06 104.85
  Q 68.68 104.29 69.27 103.97
  L 90.91 92.18
  A 1.02 1.01 -32.1 0 0 91.25 90.71
  L 89.76 88.57
  Q 89.42 88.09 88.91 88.37
  Q 80.44 93.01 71.99 97.67
  Q 69.38 99.11 68.51 100.39
  C 66.32 103.62 69.34 108.17 72.94 108.30
  Q 74.84 108.36 77.79 106.78
  Q 86.16 102.31 94.46 97.54
  Q 95.00 97.23 95.30 97.77
  L 99.67 105.55
  A 0.59 0.59 0.0 0 1 99.43 106.36
  Q 91.10 110.72 83.07 115.59
  C 79.83 117.55 77.79 119.49 77.92 123.25
  A 0.60 0.59 74.5 0 0 78.80 123.75
  L 102.60 110.72
  A 1.43 1.43 0.0 0 0 103.18 108.79
  Q 100.15 103.06 96.56 96.93
  Q 96.05 96.05 94.80 96.27
  A 0.83 0.83 0.0 0 1 93.92 95.82
  L 93.09 94.20
  Q 92.80 93.62 92.24 93.93
  L 70.53 105.83
  A 0.75 0.75 0.0 0 1 69.55 105.59"
/>
<path stroke="#49494a" vector-effect="non-scaling-stroke" d="
  M 225.16 104.53
  L 224.39 105.53
  Q 223.95 106.11 223.30 105.76
  L 201.68 93.81
  A 0.57 0.56 19.9 0 0 200.86 94.19
  Q 200.43 96.26 198.39 96.25
  Q 197.75 96.25 197.45 96.81
  L 191.17 108.23
  Q 190.23 109.94 191.94 110.89
  L 215.12 123.67
  A 0.67 0.67 0.0 0 0 216.11 123.08
  Q 216.13 118.96 212.39 116.64
  Q 203.67 111.21 194.63 106.54
  A 0.66 0.66 0.0 0 1 194.35 105.63
  L 198.51 98.07
  Q 198.93 97.32 199.68 97.73
  Q 208.79 102.70 218.28 107.64
  C 224.25 110.74 229.97 102.03 222.42 97.87
  Q 213.86 93.14 205.30 88.47
  Q 204.93 88.27 204.57 88.50
  Q 202.78 89.64 202.99 91.03
  Q 203.15 92.09 204.82 93.06
  Q 214.79 98.83 225.02 103.94
  Q 225.45 104.15 225.16 104.53"
/>
<path stroke="#49494a" vector-effect="non-scaling-stroke" d="
  M 105.1663 89.0115
  A 1.43 1.43 0.0 0 0 103.1550 88.8001
  L 102.0515 89.6937
  A 1.43 1.43 0.0 0 0 101.8401 91.7050
  L 102.7337 92.8085
  A 1.43 1.43 0.0 0 0 104.7450 93.0199
  L 105.8485 92.1263
  A 1.43 1.43 0.0 0 0 106.0599 90.1150
  L 105.1663 89.0115"
/>
<path stroke="#49494a" vector-effect="non-scaling-stroke" d="
  M 192.36 90.92
  A 2.28 2.28 0.0 0 0 190.08 88.64
  A 2.28 2.28 0.0 0 0 187.80 90.92
  A 2.28 2.28 0.0 0 0 190.08 93.20
  A 2.28 2.28 0.0 0 0 192.36 90.92"
/>
<path stroke="#49494a" vector-effect="non-scaling-stroke" d="
  M 61.29 96.19
  L 59.76 93.77
  A 1.78 1.34 -84.5 0 0 57.64 96.09
  L 58.64 97.77
  A 0.63 0.63 0.0 0 1 58.46 98.62
  L 57.72 99.12
  Q 57.13 99.52 57.54 100.12
  L 58.91 102.12
  Q 59.30 102.68 59.89 102.34
  L 64.38 99.73
  Q 65.06 99.34 64.73 98.63
  L 63.99 97.05
  A 0.98 0.96 -12.4 0 0 63.11 96.50
  L 61.86 96.50
  A 0.68 0.68 0.0 0 1 61.29 96.19"
/>
<path stroke="#59585a" vector-effect="non-scaling-stroke" d="
  M 232.27 96.48
  Q 229.61 96.27 229.25 98.94
  A 0.63 0.62 -71.0 0 0 229.55 99.57
  L 234.11 102.32
  Q 234.69 102.67 235.09 102.13
  L 236.44 100.30
  A 0.60 0.60 0.0 0 0 236.38 99.51
  L 235.51 98.63
  A 0.66 0.65 -52.5 0 1 235.41 97.82
  L 236.70 95.69
  A 1.57 1.42 79.7 0 0 234.33 93.86
  L 232.88 96.18
  Q 232.66 96.51 232.27 96.48"
/>
<path stroke="#49494a" vector-effect="non-scaling-stroke" d="
  M 250.14 120.37
  A 0.48 0.48 0.0 0 1 250.69 121.13
  Q 243.98 128.47 233.86 127.05
  Q 233.42 126.99 233.27 127.41
  Q 233.20 127.61 233.29 127.83
  Q 233.45 128.24 233.89 128.32
  C 244.21 130.16 254.55 123.70 255.24 112.89
  C 255.56 107.89 252.26 103.55 248.93 100.12
  Q 248.59 99.77 248.26 100.13
  Q 247.14 101.39 246.35 102.89
  Q 240.91 113.12 235.36 123.07
  A 0.39 0.39 0.0 0 0 235.71 123.65
  Q 243.25 123.38 250.14 120.37"
/>
<path stroke="#49494a" vector-effect="non-scaling-stroke" d="
  M 43.76 120.24
  C 48.91 121.73 52.60 123.39 58.24 123.47
  Q 58.84 123.48 58.55 122.95
  L 45.98 100.32
  Q 45.66 99.75 45.21 100.22
  Q 42.92 102.58 41.58 105.56
  A 1.84 1.83 -6.2 0 1 40.98 106.30
  Q 38.70 107.96 38.74 110.51
  C 38.94 123.04 48.01 129.77 60.29 128.24
  Q 60.80 128.18 60.78 127.66
  Q 60.77 127.40 60.61 127.23
  Q 60.40 127.00 59.86 127.07
  Q 50.12 128.33 43.22 121.14
  A 0.54 0.54 0.0 0 1 43.76 120.24"
/>
<path stroke="#49494a" vector-effect="non-scaling-stroke" d="
  M 33.72 118.12
  Q 33.33 118.51 33.53 119.24
  Q 35.17 125.29 40.07 129.28
  A 0.80 0.80 0.0 0 1 40.26 130.28
  Q 39.28 131.99 37.81 133.30
  A 0.09 0.09 0.0 0 0 37.81 133.43
  Q 37.90 133.52 37.99 133.63
  Q 38.15 133.82 38.36 133.67
  Q 40.82 131.85 42.31 129.20
  A 1.29 1.29 0.0 0 1 44.14 128.75
  Q 52.25 134.02 61.56 130.36
  Q 62.02 130.18 61.77 129.75
  L 61.62 129.50
  Q 61.31 128.99 60.77 129.23
  Q 52.37 133.06 45.00 127.86
  C 43.78 126.99 42.27 126.89 41.62 128.37
  A 0.69 0.69 0.0 0 1 40.51 128.59
  Q 36.08 124.28 34.52 118.83
  Q 34.43 118.51 34.26 118.33
  Q 33.97 118.03 33.72 118.12"
/>
<path stroke="#49494a" vector-effect="non-scaling-stroke" d="
  M 72.88 114.52
  Q 70.64 114.74 70.13 112.40
  A 0.88 0.87 82.5 0 0 69.24 111.71
  Q 67.38 111.78 67.33 113.68
  A 1.08 1.07 -69.8 0 0 67.72 114.53
  Q 68.96 115.54 67.95 116.73
  A 2.22 1.81 -86.9 0 0 70.33 120.00
  Q 71.76 118.54 73.64 117.86
  A 1.73 1.73 0.0 0 0 72.88 114.52"
/>
<path stroke="#49494a" vector-effect="non-scaling-stroke" d="
  M 225.48 115.51
  L 226.54 113.93
  A 1.48 1.48 0.0 0 0 224.23 112.10
  Q 223.60 112.78 223.20 114.02
  A 0.70 0.69 12.3 0 1 222.48 114.48
  Q 219.89 114.24 219.61 116.84
  A 0.71 0.70 17.7 0 0 219.98 117.55
  L 224.37 119.97
  Q 224.97 120.31 225.35 119.73
  L 226.40 118.15
  A 0.77 0.77 0.0 0 0 226.31 117.18
  L 225.58 116.45
  Q 225.14 116.02 225.48 115.51"
/>
<path stroke="#59585a" vector-effect="non-scaling-stroke" d="
  M 26.41 156.32
  A 0.71 0.71 0.0 0 1 27.31 157.39
  C 11.79 176.56 15.16 195.98 19.24 218.50
  Q 22.22 234.92 25.44 251.30
  C 25.74 252.86 25.68 254.34 27.31 255.25
  A 0.93 0.93 0.0 0 0 28.27 255.21
  Q 45.23 244.14 62.03 237.01
  Q 63.51 236.38 64.27 235.96
  A 0.94 0.93 -16.5 0 0 64.76 235.06
  Q 64.65 233.74 63.53 232.48
  C 57.23 225.34 49.14 214.74 45.28 207.58
  C 38.07 194.24 37.87 171.50 54.10 163.92
  A 0.35 0.35 0.0 0 0 53.99 163.26
  C 53.53 163.21 52.87 163.22 52.43 163.48
  Q 43.15 168.97 40.65 179.45
  C 37.92 190.96 40.03 200.55 46.34 211.00
  Q 53.82 223.40 63.34 233.84
  A 1.01 1.01 0.0 0 1 62.98 235.45
  Q 44.91 243.02 28.48 253.70
  A 0.95 0.95 0.0 0 1 27.03 253.08
  C 23.70 235.58 19.84 218.15 17.65 200.23
  Q 16.35 189.56 17.25 183.23
  C 18.65 173.44 23.71 161.60 31.02 154.50
  C 34.17 151.45 39.18 149.18 42.98 147.19
  A 0.90 0.89 61.4 0 1 44.18 147.55
  L 49.41 157.00
  A 1.68 1.68 0.0 0 0 51.88 157.54
  Q 78.48 137.98 104.41 118.88
  Q 104.76 118.62 104.74 118.27
  A 0.55 0.55 0.0 0 0 103.87 117.86
  L 51.16 156.63
  A 0.70 0.69 -32.6 0 1 50.14 156.41
  L 44.65 146.41
  A 1.06 1.05 61.2 0 0 43.21 145.99
  Q 32.93 151.72 22.32 157.58
  Q 21.82 157.86 21.88 158.41
  Q 21.94 158.83 22.30 158.62
  L 26.41 156.32"
/>
<path stroke="#59585a" vector-effect="non-scaling-stroke" d="
  M 266.34 254.08
  Q 249.33 243.29 230.85 235.28
  A 0.74 0.74 0.0 0 1 230.58 234.11
  C 239.03 224.41 249.83 210.81 253.06 199.49
  C 256.75 186.57 254.23 170.07 241.22 163.26
  Q 240.52 162.90 239.95 163.46
  Q 239.55 163.86 240.05 164.12
  C 251.74 170.18 255.25 184.30 252.86 196.26
  C 250.15 209.81 238.13 223.54 229.51 233.82
  A 1.46 1.46 0.0 0 0 230.05 236.10
  C 242.70 241.60 254.33 248.17 266.01 255.05
  A 1.43 1.43 0.0 0 0 268.14 254.08
  Q 272.07 233.56 275.45 214.24
  C 279.17 193.05 281.01 174.79 266.90 157.55
  A 0.78 0.78 0.0 0 1 267.93 156.40
  Q 269.79 157.62 271.50 158.50
  Q 272.17 158.85 272.43 158.38
  Q 272.62 158.02 272.27 157.82
  L 250.88 146.09
  A 1.23 1.23 0.0 0 0 249.21 146.58
  L 244.07 156.06
  Q 243.49 157.12 242.52 156.41
  Q 216.49 137.20 190.55 118.19
  Q 189.96 117.76 189.38 117.82
  A 0.44 0.44 0.0 0 0 189.17 118.61
  L 242.30 157.56
  A 1.61 1.61 0.0 0 0 244.67 157.03
  L 249.84 147.54
  A 1.00 1.00 0.0 0 1 251.22 147.15
  C 255.91 149.83 260.91 151.76 264.53 156.21
  C 273.13 166.74 278.15 179.30 277.32 192.87
  Q 276.98 198.49 276.09 204.07
  Q 272.10 229.12 266.79 253.89
  Q 266.70 254.31 266.34 254.08"
/>
<path stroke="#49494a" vector-effect="non-scaling-stroke" d="
  M 65.07 129.07
  L 63.88 126.89
  A 0.73 0.73 0.0 0 0 62.60 127.58
  L 64.32 130.88
  Q 64.65 131.53 65.29 131.17
  L 73.97 126.36
  A 0.57 0.57 0.0 0 0 74.18 125.57
  Q 73.89 125.10 73.56 125.30
  Q 69.86 127.51 65.96 129.36
  Q 65.38 129.64 65.07 129.07"
/>
<path stroke="#49494a" vector-effect="non-scaling-stroke" d="
  M 228.07 129.34
  L 220.63 125.38
  A 0.38 0.37 3.2 0 0 220.10 125.85
  Q 220.40 126.58 221.37 127.12
  Q 226.89 130.20 229.00 131.27
  A 0.58 0.58 0.0 0 0 229.79 130.99
  L 231.52 127.12
  A 0.56 0.56 0.0 0 0 230.54 126.58
  L 228.82 129.15
  A 0.57 0.57 0.0 0 1 228.07 129.34"
/>
<path stroke="#59585a" vector-effect="non-scaling-stroke" d="
  M 69.36 135.33
  L 71.75 133.83
  A 0.53 0.52 63.5 0 0 71.96 133.19
  Q 71.71 132.58 70.86 132.70
  C 66.37 133.29 68.26 140.05 73.08 136.45
  A 0.89 0.88 53.6 0 0 73.26 135.22
  L 73.08 134.98
  Q 72.77 134.56 72.30 134.80
  L 69.80 136.09
  A 0.44 0.44 0.0 0 1 69.36 135.33"
/>
<path stroke="#59585a" vector-effect="non-scaling-stroke" d="
  M 221.82 133.67
  L 225.49 135.86
  A 0.11 0.11 0.0 0 0 225.64 135.82
  L 225.68 135.76
  A 2.11 1.76 30.8 0 0 224.77 133.17
  L 224.53 133.03
  A 2.11 1.76 30.8 0 0 221.81 133.46
  L 221.78 133.52
  A 0.11 0.11 0.0 0 0 221.82 133.67"
/>
<path stroke="#59585a" vector-effect="non-scaling-stroke" d="
  M 225.16 136.53
  L 221.21 134.42
  A 0.11 0.11 0.0 0 0 221.06 134.47
  L 221.04 134.51
  A 2.25 1.98 28.1 0 0 222.09 137.32
  L 222.26 137.41
  A 2.25 1.98 28.1 0 0 225.18 136.72
  L 225.21 136.68
  A 0.11 0.11 0.0 0 0 225.16 136.53"
/>
<path stroke="#59585a" vector-effect="non-scaling-stroke" d="
  M 67.2081 139.2639
  A 1.51 1.51 0.0 0 0 65.0984 138.9336
  L 63.9349 139.7820
  A 1.51 1.51 0.0 0 0 63.6045 141.8918
  L 64.5119 143.1361
  A 1.51 1.51 0.0 0 0 66.6216 143.4664
  L 67.7851 142.6180
  A 1.51 1.51 0.0 0 0 68.1155 140.5082
  L 67.2081 139.2639"
/>
<path stroke="#59585a" vector-effect="non-scaling-stroke" d="
  M 229.18 142.34
  L 226.33 140.88
  A 0.56 0.56 0.0 0 0 225.57 141.61
  Q 226.22 143.03 227.85 143.79
  A 2.81 2.09 -87.8 0 0 230.59 140.38
  Q 230.40 139.43 228.73 138.89
  Q 227.18 138.39 226.67 139.52
  Q 226.43 140.03 226.96 140.23
  Q 228.33 140.75 229.63 141.51
  A 0.47 0.47 0.0 0 1 229.18 142.34"
/>
<path stroke="#59585a" vector-effect="non-scaling-stroke" d="
  M 28.23 207.34
  L 32.08 204.97
  A 0.13 0.13 0.0 0 0 32.13 204.79
  L 32.10 204.76
  A 2.20 1.77 -31.6 0 0 29.30 204.40
  L 28.98 204.60
  A 2.20 1.77 -31.6 0 0 28.03 207.26
  L 28.05 207.30
  A 0.13 0.13 0.0 0 0 28.23 207.34"
/>
<path stroke="#59585a" vector-effect="non-scaling-stroke" d="
  M 265.04 208.04
  Q 262.94 207.74 261.56 206.18
  A 0.36 0.36 0.0 0 0 260.96 206.27
  C 259.87 208.82 265.24 211.15 266.27 207.10
  C 266.76 205.15 264.29 203.83 262.73 204.15
  A 0.60 0.59 -36.3 0 0 262.56 205.25
  L 265.43 206.87
  A 0.63 0.63 0.0 0 1 265.04 208.04"
/>
<path stroke="#59585a" vector-effect="non-scaling-stroke" d="
  M 32.90 206.01
  L 28.81 208.32
  A 0.15 0.15 0.0 0 0 28.76 208.53
  L 28.80 208.61
  A 2.22 1.72 -29.5 0 0 31.58 209.01
  L 32.07 208.74
  A 2.22 1.72 -29.5 0 0 33.15 206.14
  L 33.11 206.07
  A 0.15 0.15 0.0 0 0 32.90 206.01"
/>
<path stroke="#49494a" vector-effect="non-scaling-stroke" d="
  M 101.56 108.96
  L 100.67 107.41
  A 0.68 0.68 0.0 0 0 99.75 107.17
  L 92.58 111.30
  A 16.59 1.09 -30.0 0 0 78.76 120.54
  L 79.24 121.37
  A 16.59 1.09 -30.0 0 0 94.15 114.02
  L 101.32 109.88
  A 0.68 0.68 0.0 0 0 101.56 108.96"
/>
<path stroke="#49494a" vector-effect="non-scaling-stroke" d="
  M 193.39 107.24
  L 192.36 109.05
  A 0.72 0.72 0.0 0 0 192.62 110.03
  L 192.69 110.07
  A 24.66 1.15 29.8 0 0 214.66 121.33
  L 215.27 120.27
  A 24.66 1.15 29.8 0 0 194.44 107.01
  L 194.37 106.97
  A 0.72 0.72 0.0 0 0 193.39 107.24"
/>
<path stroke="#59585a" vector-effect="non-scaling-stroke" d="
  M 66.80 141.35
  A 0.62 0.62 0.0 0 0 66.01 140.40
  L 65.22 140.93
  A 0.58 0.58 0.0 0 0 65.66 141.98
  Q 66.31 141.86 66.80 141.35"
/>
</g>
<path fill="#000000" d="
  M 119.06 78.01
  L 114.21 82.34
  Q 113.95 82.57 114.24 82.77
  L 114.53 82.97
  Q 112.37 82.78 110.71 84.33
  Q 109.49 83.42 109.00 85.00
  Q 108.46 86.76 110.19 87.85
  L 110.91 89.62
  Q 111.10 90.09 110.93 90.55
  C 110.16 92.61 108.81 94.74 109.04 96.88
  C 109.46 100.60 112.04 102.23 112.50 106.23
  A 1.50 1.47 20.9 0 0 112.90 107.10
  C 117.26 111.58 107.69 113.56 108.01 117.85
  A 1.09 1.07 -23.8 0 1 107.67 118.70
  Q 103.07 123.04 97.93 126.66
  Q 94.73 128.92 93.86 130.68
  C 91.14 136.20 95.76 139.95 98.18 144.59
  Q 98.76 145.70 100.31 145.48
  Q 100.98 145.39 100.77 146.03
  L 100.19 147.85
  Q 100.03 148.36 100.09 148.90
  C 100.97 155.98 92.56 164.71 87.21 168.26
  Q 77.21 174.88 69.52 167.34
  C 58.68 156.74 47.63 171.67 46.56 181.54
  C 44.81 197.65 63.22 220.01 73.91 230.73
  Q 74.70 231.52 74.15 233.04
  Q 73.84 233.91 72.24 234.78
  Q 49.06 247.35 26.10 260.32
  C 24.28 261.34 21.93 260.90 21.70 258.75
  Q 19.11 235.20 13.73 214.50
  C 7.04 188.74 10.42 161.23 33.93 145.20
  C 34.52 144.80 35.71 136.57 36.81 134.47
  A 1.39 1.39 0.0 0 0 36.24 132.60
  Q 29.48 128.99 26.06 122.14
  A 1.16 1.15 -26.2 0 0 24.52 121.62
  C 16.15 125.78 10.49 115.42 2.62 118.71
  Q 2.14 118.91 1.74 118.58
  Q 0.70 117.74 1.07 116.31
  Q 1.20 115.82 1.65 115.59
  C 6.68 113.11 11.02 114.67 15.15 113.96
  C 24.00 112.43 24.25 105.35 25.16 98.02
  A 0.91 0.91 0.0 0 1 26.89 97.76
  C 28.18 100.62 30.10 107.67 33.19 108.54
  Q 33.87 108.73 33.98 108.03
  L 34.48 104.96
  Q 34.57 104.40 34.89 103.94
  Q 36.07 102.23 35.70 100.10
  A 1.86 1.73 23.7 0 0 35.36 99.31
  Q 31.72 94.39 37.29 91.26
  Q 70.76 72.49 86.57 64.09
  Q 89.38 62.60 94.08 61.48
  Q 94.56 61.36 95.00 61.59
  C 96.29 62.28 97.19 62.56 98.59 61.79
  Q 109.66 55.67 120.58 50.09
  A 0.67 0.66 45.8 0 0 120.59 48.91
  L 111.33 43.81
  A 0.81 0.80 -48.3 0 0 110.48 43.86
  Q 108.37 45.36 106.72 43.25
  Q 106.37 42.80 106.45 42.23
  C 106.99 38.32 92.45 36.80 98.37 32.21
  A 1.64 1.63 40.1 0 0 98.13 29.47
  Q 90.14 25.24 82.06 20.70
  C 78.55 18.73 86.30 5.74 89.24 4.53
  A 1.17 1.15 47.9 0 1 90.24 4.59
  L 97.13 8.37
  A 1.32 1.26 -34.8 0 0 97.97 8.50
  Q 104.98 7.20 110.31 11.92
  A 0.76 0.75 29.5 0 1 110.53 12.69
  L 109.84 15.08
  A 0.84 0.83 -67.7 0 0 110.24 16.05
  L 146.01 35.29
  A 2.15 2.15 0.0 0 0 148.05 35.29
  L 183.85 16.05
  A 0.84 0.84 0.0 0 0 184.27 15.07
  L 183.82 13.48
  A 2.02 2.01 62.1 0 1 184.46 11.38
  Q 189.41 7.21 195.85 8.53
  Q 196.45 8.65 196.98 8.35
  L 203.53 4.72
  A 2.03 2.02 55.8 0 1 206.07 5.21
  Q 210.76 10.91 213.05 17.98
  C 213.51 19.40 212.18 20.63 210.91 21.33
  Q 203.36 25.47 195.55 29.80
  A 1.20 1.20 0.0 0 0 195.47 31.85
  C 200.79 35.39 190.28 39.32 188.18 40.49
  Q 187.73 40.74 187.76 41.26
  Q 187.94 43.97 185.22 44.54
  Q 184.72 44.64 184.36 44.28
  Q 183.41 43.33 182.57 43.83
  Q 178.15 46.45 173.63 48.72
  A 0.80 0.79 45.5 0 0 173.62 50.13
  L 196.47 62.16
  Q 196.96 62.41 197.47 62.23
  Q 201.14 60.88 205.04 62.93
  Q 231.02 76.65 256.58 91.15
  Q 259.48 92.80 260.26 95.92
  Q 260.34 96.27 260.19 96.59
  L 258.05 101.01
  A 0.87 0.86 41.2 0 0 258.11 101.86
  Q 259.79 104.48 260.19 107.55
  Q 260.26 108.11 260.82 108.23
  Q 262.40 108.54 263.18 106.92
  Q 265.28 102.58 267.18 98.12
  Q 267.48 97.43 267.99 97.47
  A 1.16 1.16 0.0 0 1 269.06 98.56
  C 269.29 102.37 269.77 107.13 272.06 110.11
  C 277.80 117.57 288.82 110.28 293.00 117.22
  A 0.99 0.99 0.0 0 1 291.80 118.65
  Q 287.41 116.99 283.16 119.67
  Q 276.47 123.91 268.93 121.80
  Q 268.41 121.65 268.15 122.13
  Q 264.62 128.85 257.96 132.53
  A 1.64 1.64 0.0 0 0 257.32 134.77
  Q 259.70 139.05 259.19 143.95
  A 0.96 0.96 0.0 0 0 259.62 144.85
  Q 277.84 156.91 281.95 178.50
  C 283.66 187.52 283.08 194.61 282.55 202.83
  C 282.27 207.25 280.92 211.33 280.66 215.81
  C 280.58 217.16 279.73 217.83 279.44 219.05
  Q 274.51 240.32 272.48 257.49
  Q 272.17 260.14 270.29 261.02
  A 1.14 1.11 -42.5 0 1 269.26 260.99
  Q 252.66 251.81 236.08 242.67
  Q 232.34 240.60 229.96 240.04
  Q 229.49 239.93 229.13 239.62
  Q 225.49 236.50 221.10 234.43
  Q 219.15 233.52 219.42 232.08
  Q 219.56 231.33 220.76 230.07
  C 233.40 216.74 262.15 183.30 238.65 166.07
  Q 234.65 163.14 228.87 163.69
  Q 228.40 163.73 228.05 164.06
  C 222.97 168.81 218.92 173.05 212.44 170.64
  Q 198.43 165.41 193.77 150.80
  Q 193.61 150.31 193.78 149.83
  Q 195.52 144.90 198.43 140.65
  C 201.74 135.82 202.83 131.36 197.55 127.51
  Q 192.12 123.55 186.78 119.59
  Q 186.25 119.19 186.25 118.52
  L 186.25 116.78
  A 1.04 1.02 17.9 0 0 185.81 115.94
  Q 183.40 114.29 181.01 111.50
  C 177.88 107.83 188.83 98.60 183.18 90.76
  A 0.95 0.95 0.0 0 1 183.12 89.76
  L 185.01 86.32
  A 1.32 1.32 0.0 0 0 184.38 84.48
  Q 180.14 82.61 177.51 80.19
  Q 175.46 78.30 173.92 77.55
  Q 160.47 70.99 147.72 63.62
  A 1.25 1.23 43.8 0 0 146.42 63.64
  Q 134.90 70.78 122.71 76.71
  Q 122.20 76.96 121.86 77.40
  Q 121.03 78.48 119.06 78.01
  Z
  M 195.4657 67.9282
  A 0.79 0.79 0.0 0 0 195.1521 66.8559
  L 88.3859 8.4031
  A 0.79 0.79 0.0 0 0 87.3135 8.7167
  L 87.2943 8.7518
  A 0.79 0.79 0.0 0 0 87.6079 9.8241
  L 194.3741 68.2769
  A 0.79 0.79 0.0 0 0 195.4465 67.9633
  L 195.4657 67.9282
  Z
  M 206.8900 8.6707
  A 0.78 0.78 0.0 0 0 205.8312 8.3611
  L 152.3604 37.6355
  A 0.78 0.78 0.0 0 0 152.0508 38.6942
  L 152.0700 38.7293
  A 0.78 0.78 0.0 0 0 153.1288 39.0389
  L 206.5996 9.7645
  A 0.78 0.78 0.0 0 0 206.9092 8.7058
  L 206.8900 8.6707
  Z
  M 190.69 76.84
  L 201.76 83.20
  A 0.60 0.59 -60.6 0 1 201.98 84.00
  L 197.50 92.00
  A 0.89 0.89 0.0 0 1 195.99 92.08
  Q 195.33 91.15 194.21 91.24
  Q 193.74 91.27 193.48 91.66
  L 191.76 94.20
  A 0.84 0.82 19.0 0 1 191.00 94.56
  Q 187.92 94.29 186.30 91.69
  A 0.81 0.80 -44.7 0 1 186.31 90.81
  L 187.72 88.65
  A 0.77 0.76 36.0 0 0 187.55 87.63
  L 186.68 86.94
  Q 186.16 86.53 185.81 87.08
  C 181.84 93.34 189.86 96.51 193.89 98.67
  A 1.35 1.35 0.0 0 0 195.70 98.13
  L 210.05 71.89
  Q 210.35 71.32 209.83 70.95
  Q 204.75 67.34 198.49 66.81
  A 0.36 0.36 0.0 0 0 198.29 67.49
  L 207.25 72.15
  A 1.05 1.05 0.0 0 1 207.69 73.58
  L 203.00 82.24
  Q 202.73 82.75 202.22 82.48
  L 191.00 76.49
  Q 190.86 75.42 190.02 74.96
  Q 137.13 46.05 84.35 17.13
  Q 83.73 16.79 83.05 16.99
  Q 82.51 17.14 82.51 17.52
  Q 82.51 18.06 82.99 18.32
  L 189.70 76.58
  A 1.18 1.14 58.2 0 0 190.25 76.72
  Q 190.56 76.72 190.69 76.84
  Z
  M 211.3920 17.1230
  A 0.77 0.77 0.0 0 0 210.3468 16.8174
  L 162.5248 42.9992
  A 0.77 0.77 0.0 0 0 162.2192 44.0444
  L 162.2480 44.0970
  A 0.77 0.77 0.0 0 0 163.2932 44.4026
  L 211.1152 18.2208
  A 0.77 0.77 0.0 0 0 211.4208 17.1756
  L 211.3920 17.1230
  Z
  M 108.07 35.68
  L 100.47 31.31
  Q 99.98 31.03 100.00 31.60
  Q 100.01 31.80 99.99 32.03
  A 0.88 0.87 16.4 0 0 100.45 32.86
  L 108.11 36.91
  Q 108.65 37.20 109.09 36.78
  Q 110.09 35.85 111.98 36.26
  Q 112.58 36.39 112.72 36.98
  L 113.27 39.32
  A 0.86 0.84 7.6 0 0 113.69 39.86
  Q 141.40 54.94 168.83 70.25
  C 174.34 73.33 181.56 75.46 188.24 79.27
  Q 188.49 79.41 188.72 79.29
  Q 189.17 79.05 188.77 78.74
  C 184.25 75.30 179.10 74.34 174.68 71.96
  Q 144.79 55.86 115.09 39.38
  Q 114.63 39.12 114.55 38.61
  C 114.15 36.06 111.40 33.80 108.97 35.63
  Q 108.54 35.95 108.07 35.68
  Z
  M 179.96 38.88
  Q 173.51 42.35 167.18 45.92
  Q 166.88 46.09 166.77 46.46
  A 0.42 0.42 0.0 0 0 167.38 46.95
  L 180.83 39.53
  A 0.82 0.81 67.0 0 0 181.21 38.57
  Q 180.55 36.49 182.77 35.84
  A 0.93 0.90 -36.0 0 1 183.53 35.95
  L 184.89 36.83
  Q 185.34 37.12 185.82 36.89
  Q 189.59 35.05 193.21 32.98
  Q 193.94 32.56 194.18 31.77
  Q 194.46 30.88 193.65 31.34
  L 185.85 35.81
  Q 185.51 36.01 185.20 35.77
  L 184.09 34.88
  Q 183.69 34.56 183.24 34.81
  L 179.48 36.92
  A 0.52 0.52 0.0 0 0 179.46 37.82
  L 179.98 38.13
  A 0.43 0.43 0.0 0 1 179.96 38.88
  Z
  M 126.9372 52.2759
  A 0.63 0.63 0.0 0 0 126.0821 52.0259
  L 98.6976 67.0184
  A 0.63 0.63 0.0 0 0 98.4475 67.8736
  L 98.5628 68.0841
  A 0.63 0.63 0.0 0 0 99.4179 68.3341
  L 126.8024 53.3416
  A 0.63 0.63 0.0 0 0 127.0525 52.4864
  L 126.9372 52.2759
  Z
  M 137.0273 57.4419
  A 0.40 0.40 0.0 0 0 136.4844 57.2831
  L 103.1353 75.5412
  A 0.40 0.40 0.0 0 0 102.9765 76.0841
  L 103.3127 76.6981
  A 0.40 0.40 0.0 0 0 103.8556 76.8569
  L 137.2047 58.5988
  A 0.40 0.40 0.0 0 0 137.3635 58.0559
  L 137.0273 57.4419
  Z
  M 106.17 78.90
  C 108.50 78.02 111.05 75.70 113.28 75.26
  C 115.07 74.91 116.48 74.72 118.12 73.82
  Q 129.83 67.43 141.56 61.11
  A 0.48 0.48 0.0 0 0 141.51 60.24
  Q 141.23 60.13 140.83 60.35
  C 132.44 64.96 122.76 71.52 113.71 74.32
  Q 109.47 75.64 105.93 78.47
  Q 104.67 79.47 106.17 78.90
  Z
  M 91.10 82.30
  L 86.31 73.36
  Q 85.99 72.77 86.58 72.45
  L 95.75 67.50
  A 0.36 0.36 0.0 0 0 95.56 66.82
  Q 89.60 67.14 84.71 70.51
  Q 83.58 71.28 84.24 72.48
  L 98.65 98.53
  A 0.81 0.81 0.0 0 0 99.71 98.87
  C 104.08 96.79 111.81 93.71 108.38 87.21
  A 0.72 0.72 0.0 0 0 107.40 86.92
  L 106.54 87.39
  A 0.72 0.72 0.0 0 0 106.26 88.37
  L 107.78 91.04
  A 0.86 0.85 -39.0 0 1 107.67 92.03
  Q 105.89 94.04 103.25 94.57
  A 0.88 0.87 -21.8 0 1 102.35 94.19
  L 100.47 91.24
  A 0.55 0.54 -30.1 0 0 99.75 91.05
  L 97.50 92.23
  A 0.71 0.70 61.2 0 1 96.56 91.95
  L 92.07 84.13
  A 0.66 0.65 60.7 0 1 92.32 83.23
  L 101.84 77.92
  Q 102.20 77.72 101.94 77.39
  Q 101.73 77.13 101.50 77.25
  Q 95.59 80.34 91.98 82.53
  Q 91.41 82.88 91.10 82.30
  Z
  M 46.19 94.69
  A 0.98 0.97 60.6 0 1 46.57 93.32
  L 82.04 74.64
  Q 82.44 74.43 82.68 74.81
  Q 83.03 75.33 83.66 75.26
  A 0.62 0.62 0.0 0 0 84.16 74.39
  L 83.35 72.53
  Q 83.16 72.09 82.74 72.32
  L 44.66 93.22
  A 0.92 0.92 0.0 0 0 44.24 94.37
  Q 44.87 95.96 46.18 97.04
  Q 46.74 97.50 46.76 96.78
  Q 46.79 95.67 46.19 94.69
  Z
  M 249.57 93.25
  L 211.99 72.72
  A 1.58 1.30 -3.2 0 0 209.88 74.66
  Q 210.63 75.39 211.52 74.73
  A 0.65 0.64 -48.0 0 1 212.20 74.69
  L 247.63 93.46
  Q 248.18 93.76 247.95 94.34
  L 247.00 96.79
  A 0.55 0.55 0.0 0 0 247.97 97.30
  L 249.87 94.47
  A 0.85 0.85 0.0 0 0 249.57 93.25
  Z
  M 60.94 89.52
  C 66.10 90.52 78.92 82.04 83.81 79.32
  Q 84.80 78.77 84.43 78.11
  A 0.86 0.86 0.0 0 0 83.24 77.78
  C 78.17 80.70 66.61 88.39 60.95 87.71
  A 0.78 0.77 88.0 0 0 60.10 88.63
  Q 60.24 89.39 60.94 89.52
  Z
  M 233.35 87.82
  C 226.70 87.92 216.42 80.98 210.50 77.69
  A 0.53 0.52 8.4 0 0 209.73 78.26
  C 209.97 79.38 211.18 79.67 211.95 80.12
  Q 218.68 84.05 225.56 87.69
  C 227.43 88.68 233.31 91.54 234.02 88.66
  A 0.68 0.68 0.0 0 0 233.35 87.82
  Z
  M 90.6131 87.3077
  A 1.70 0.88 55.9 0 0 90.3887 85.4066
  A 1.70 0.88 55.9 0 0 88.7069 84.4923
  A 1.70 0.88 55.9 0 0 88.9313 86.3934
  A 1.70 0.88 55.9 0 0 90.6131 87.3077
  Z
  M 203.4625 87.3409
  A 1.67 0.80 121.7 0 0 205.0206 86.3404
  A 1.67 0.80 121.7 0 0 205.2175 84.4991
  A 1.67 0.80 121.7 0 0 203.6594 85.4996
  A 1.67 0.80 121.7 0 0 203.4625 87.3409
  Z
  M 69.55 105.59
  L 69.06 104.85
  Q 68.68 104.29 69.27 103.97
  L 90.91 92.18
  A 1.02 1.01 -32.1 0 0 91.25 90.71
  L 89.76 88.57
  Q 89.42 88.09 88.91 88.37
  Q 80.44 93.01 71.99 97.67
  Q 69.38 99.11 68.51 100.39
  C 66.32 103.62 69.34 108.17 72.94 108.30
  Q 74.84 108.36 77.79 106.78
  Q 86.16 102.31 94.46 97.54
  Q 95.00 97.23 95.30 97.77
  L 99.67 105.55
  A 0.59 0.59 0.0 0 1 99.43 106.36
  Q 91.10 110.72 83.07 115.59
  C 79.83 117.55 77.79 119.49 77.92 123.25
  A 0.60 0.59 74.5 0 0 78.80 123.75
  L 102.60 110.72
  A 1.43 1.43 0.0 0 0 103.18 108.79
  Q 100.15 103.06 96.56 96.93
  Q 96.05 96.05 94.80 96.27
  A 0.83 0.83 0.0 0 1 93.92 95.82
  L 93.09 94.20
  Q 92.80 93.62 92.24 93.93
  L 70.53 105.83
  A 0.75 0.75 0.0 0 1 69.55 105.59
  Z
  M 225.16 104.53
  L 224.39 105.53
  Q 223.95 106.11 223.30 105.76
  L 201.68 93.81
  A 0.57 0.56 19.9 0 0 200.86 94.19
  Q 200.43 96.26 198.39 96.25
  Q 197.75 96.25 197.45 96.81
  L 191.17 108.23
  Q 190.23 109.94 191.94 110.89
  L 215.12 123.67
  A 0.67 0.67 0.0 0 0 216.11 123.08
  Q 216.13 118.96 212.39 116.64
  Q 203.67 111.21 194.63 106.54
  A 0.66 0.66 0.0 0 1 194.35 105.63
  L 198.51 98.07
  Q 198.93 97.32 199.68 97.73
  Q 208.79 102.70 218.28 107.64
  C 224.25 110.74 229.97 102.03 222.42 97.87
  Q 213.86 93.14 205.30 88.47
  Q 204.93 88.27 204.57 88.50
  Q 202.78 89.64 202.99 91.03
  Q 203.15 92.09 204.82 93.06
  Q 214.79 98.83 225.02 103.94
  Q 225.45 104.15 225.16 104.53
  Z
  M 105.1663 89.0115
  A 1.43 1.43 0.0 0 0 103.1550 88.8001
  L 102.0515 89.6937
  A 1.43 1.43 0.0 0 0 101.8401 91.7050
  L 102.7337 92.8085
  A 1.43 1.43 0.0 0 0 104.7450 93.0199
  L 105.8485 92.1263
  A 1.43 1.43 0.0 0 0 106.0599 90.1150
  L 105.1663 89.0115
  Z
  M 192.36 90.92
  A 2.28 2.28 0.0 0 0 190.08 88.64
  A 2.28 2.28 0.0 0 0 187.80 90.92
  A 2.28 2.28 0.0 0 0 190.08 93.20
  A 2.28 2.28 0.0 0 0 192.36 90.92
  Z
  M 61.29 96.19
  L 59.76 93.77
  A 1.78 1.34 -84.5 0 0 57.64 96.09
  L 58.64 97.77
  A 0.63 0.63 0.0 0 1 58.46 98.62
  L 57.72 99.12
  Q 57.13 99.52 57.54 100.12
  L 58.91 102.12
  Q 59.30 102.68 59.89 102.34
  L 64.38 99.73
  Q 65.06 99.34 64.73 98.63
  L 63.99 97.05
  A 0.98 0.96 -12.4 0 0 63.11 96.50
  L 61.86 96.50
  A 0.68 0.68 0.0 0 1 61.29 96.19
  Z
  M 232.27 96.48
  Q 229.61 96.27 229.25 98.94
  A 0.63 0.62 -71.0 0 0 229.55 99.57
  L 234.11 102.32
  Q 234.69 102.67 235.09 102.13
  L 236.44 100.30
  A 0.60 0.60 0.0 0 0 236.38 99.51
  L 235.51 98.63
  A 0.66 0.65 -52.5 0 1 235.41 97.82
  L 236.70 95.69
  A 1.57 1.42 79.7 0 0 234.33 93.86
  L 232.88 96.18
  Q 232.66 96.51 232.27 96.48
  Z
  M 250.14 120.37
  A 0.48 0.48 0.0 0 1 250.69 121.13
  Q 243.98 128.47 233.86 127.05
  Q 233.42 126.99 233.27 127.41
  Q 233.20 127.61 233.29 127.83
  Q 233.45 128.24 233.89 128.32
  C 244.21 130.16 254.55 123.70 255.24 112.89
  C 255.56 107.89 252.26 103.55 248.93 100.12
  Q 248.59 99.77 248.26 100.13
  Q 247.14 101.39 246.35 102.89
  Q 240.91 113.12 235.36 123.07
  A 0.39 0.39 0.0 0 0 235.71 123.65
  Q 243.25 123.38 250.14 120.37
  Z
  M 43.76 120.24
  C 48.91 121.73 52.60 123.39 58.24 123.47
  Q 58.84 123.48 58.55 122.95
  L 45.98 100.32
  Q 45.66 99.75 45.21 100.22
  Q 42.92 102.58 41.58 105.56
  A 1.84 1.83 -6.2 0 1 40.98 106.30
  Q 38.70 107.96 38.74 110.51
  C 38.94 123.04 48.01 129.77 60.29 128.24
  Q 60.80 128.18 60.78 127.66
  Q 60.77 127.40 60.61 127.23
  Q 60.40 127.00 59.86 127.07
  Q 50.12 128.33 43.22 121.14
  A 0.54 0.54 0.0 0 1 43.76 120.24
  Z
  M 259.99 116.03
  C 259.24 117.00 259.56 118.20 259.27 119.10
  Q 257.90 123.53 255.00 127.23
  Q 254.60 127.75 255.26 127.74
  Q 255.99 127.73 256.53 127.00
  Q 262.20 119.44 261.38 109.93
  Q 261.36 109.66 261.23 109.51
  Q 260.99 109.23 260.63 109.31
  A 0.48 0.48 0.0 0 0 260.25 109.78
  L 260.25 115.25
  A 1.32 1.29 -27.2 0 1 259.99 116.03
  Z
  M 33.72 118.12
  Q 33.33 118.51 33.53 119.24
  Q 35.17 125.29 40.07 129.28
  A 0.80 0.80 0.0 0 1 40.26 130.28
  Q 39.28 131.99 37.81 133.30
  A 0.09 0.09 0.0 0 0 37.81 133.43
  Q 37.90 133.52 37.99 133.63
  Q 38.15 133.82 38.36 133.67
  Q 40.82 131.85 42.31 129.20
  A 1.29 1.29 0.0 0 1 44.14 128.75
  Q 52.25 134.02 61.56 130.36
  Q 62.02 130.18 61.77 129.75
  L 61.62 129.50
  Q 61.31 128.99 60.77 129.23
  Q 52.37 133.06 45.00 127.86
  C 43.78 126.99 42.27 126.89 41.62 128.37
  A 0.69 0.69 0.0 0 1 40.51 128.59
  Q 36.08 124.28 34.52 118.83
  Q 34.43 118.51 34.26 118.33
  Q 33.97 118.03 33.72 118.12
  L 33.89 109.81
  A 0.33 0.33 0.0 0 0 33.24 109.73
  Q 32.33 113.84 33.72 118.12
  Z
  M 72.88 114.52
  Q 70.64 114.74 70.13 112.40
  A 0.88 0.87 82.5 0 0 69.24 111.71
  Q 67.38 111.78 67.33 113.68
  A 1.08 1.07 -69.8 0 0 67.72 114.53
  Q 68.96 115.54 67.95 116.73
  A 2.22 1.81 -86.9 0 0 70.33 120.00
  Q 71.76 118.54 73.64 117.86
  A 1.73 1.73 0.0 0 0 72.88 114.52
  Z
  M 225.48 115.51
  L 226.54 113.93
  A 1.48 1.48 0.0 0 0 224.23 112.10
  Q 223.60 112.78 223.20 114.02
  A 0.70 0.69 12.3 0 1 222.48 114.48
  Q 219.89 114.24 219.61 116.84
  A 0.71 0.70 17.7 0 0 219.98 117.55
  L 224.37 119.97
  Q 224.97 120.31 225.35 119.73
  L 226.40 118.15
  A 0.77 0.77 0.0 0 0 226.31 117.18
  L 225.58 116.45
  Q 225.14 116.02 225.48 115.51
  Z
  M 26.41 156.32
  A 0.71 0.71 0.0 0 1 27.31 157.39
  C 11.79 176.56 15.16 195.98 19.24 218.50
  Q 22.22 234.92 25.44 251.30
  C 25.74 252.86 25.68 254.34 27.31 255.25
  A 0.93 0.93 0.0 0 0 28.27 255.21
  Q 45.23 244.14 62.03 237.01
  Q 63.51 236.38 64.27 235.96
  A 0.94 0.93 -16.5 0 0 64.76 235.06
  Q 64.65 233.74 63.53 232.48
  C 57.23 225.34 49.14 214.74 45.28 207.58
  C 38.07 194.24 37.87 171.50 54.10 163.92
  A 0.35 0.35 0.0 0 0 53.99 163.26
  C 53.53 163.21 52.87 163.22 52.43 163.48
  Q 43.15 168.97 40.65 179.45
  C 37.92 190.96 40.03 200.55 46.34 211.00
  Q 53.82 223.40 63.34 233.84
  A 1.01 1.01 0.0 0 1 62.98 235.45
  Q 44.91 243.02 28.48 253.70
  A 0.95 0.95 0.0 0 1 27.03 253.08
  C 23.70 235.58 19.84 218.15 17.65 200.23
  Q 16.35 189.56 17.25 183.23
  C 18.65 173.44 23.71 161.60 31.02 154.50
  C 34.17 151.45 39.18 149.18 42.98 147.19
  A 0.90 0.89 61.4 0 1 44.18 147.55
  L 49.41 157.00
  A 1.68 1.68 0.0 0 0 51.88 157.54
  Q 78.48 137.98 104.41 118.88
  Q 104.76 118.62 104.74 118.27
  A 0.55 0.55 0.0 0 0 103.87 117.86
  L 51.16 156.63
  A 0.70 0.69 -32.6 0 1 50.14 156.41
  L 44.65 146.41
  A 1.06 1.05 61.2 0 0 43.21 145.99
  Q 32.93 151.72 22.32 157.58
  Q 21.82 157.86 21.88 158.41
  Q 21.94 158.83 22.30 158.62
  L 26.41 156.32
  Z
  M 266.34 254.08
  Q 249.33 243.29 230.85 235.28
  A 0.74 0.74 0.0 0 1 230.58 234.11
  C 239.03 224.41 249.83 210.81 253.06 199.49
  C 256.75 186.57 254.23 170.07 241.22 163.26
  Q 240.52 162.90 239.95 163.46
  Q 239.55 163.86 240.05 164.12
  C 251.74 170.18 255.25 184.30 252.86 196.26
  C 250.15 209.81 238.13 223.54 229.51 233.82
  A 1.46 1.46 0.0 0 0 230.05 236.10
  C 242.70 241.60 254.33 248.17 266.01 255.05
  A 1.43 1.43 0.0 0 0 268.14 254.08
  Q 272.07 233.56 275.45 214.24
  C 279.17 193.05 281.01 174.79 266.90 157.55
  A 0.78 0.78 0.0 0 1 267.93 156.40
  Q 269.79 157.62 271.50 158.50
  Q 272.17 158.85 272.43 158.38
  Q 272.62 158.02 272.27 157.82
  L 250.88 146.09
  A 1.23 1.23 0.0 0 0 249.21 146.58
  L 244.07 156.06
  Q 243.49 157.12 242.52 156.41
  Q 216.49 137.20 190.55 118.19
  Q 189.96 117.76 189.38 117.82
  A 0.44 0.44 0.0 0 0 189.17 118.61
  L 242.30 157.56
  A 1.61 1.61 0.0 0 0 244.67 157.03
  L 249.84 147.54
  A 1.00 1.00 0.0 0 1 251.22 147.15
  C 255.91 149.83 260.91 151.76 264.53 156.21
  C 273.13 166.74 278.15 179.30 277.32 192.87
  Q 276.98 198.49 276.09 204.07
  Q 272.10 229.12 266.79 253.89
  Q 266.70 254.31 266.34 254.08
  Z
  M 65.07 129.07
  L 63.88 126.89
  A 0.73 0.73 0.0 0 0 62.60 127.58
  L 64.32 130.88
  Q 64.65 131.53 65.29 131.17
  L 73.97 126.36
  A 0.57 0.57 0.0 0 0 74.18 125.57
  Q 73.89 125.10 73.56 125.30
  Q 69.86 127.51 65.96 129.36
  Q 65.38 129.64 65.07 129.07
  Z
  M 228.07 129.34
  L 220.63 125.38
  A 0.38 0.37 3.2 0 0 220.10 125.85
  Q 220.40 126.58 221.37 127.12
  Q 226.89 130.20 229.00 131.27
  A 0.58 0.58 0.0 0 0 229.79 130.99
  L 231.52 127.12
  A 0.56 0.56 0.0 0 0 230.54 126.58
  L 228.82 129.15
  A 0.57 0.57 0.0 0 1 228.07 129.34
  Z
  M 232.56 130.25
  C 237.48 132.93 245.79 132.29 250.10 128.55
  A 0.63 0.63 0.0 0 1 250.99 128.60
  Q 252.27 130.05 254.67 133.07
  Q 255.19 133.72 255.79 133.03
  A 0.57 0.57 0.0 0 0 255.63 132.15
  Q 254.12 131.33 253.98 129.74
  Q 253.93 129.12 253.42 128.76
  L 251.06 127.09
  A 0.66 0.65 43.4 0 0 250.26 127.11
  Q 242.58 133.24 233.24 128.97
  Q 232.55 128.66 232.26 129.52
  Q 232.10 130.01 232.56 130.25
  Z
  M 69.36 135.33
  L 71.75 133.83
  A 0.53 0.52 63.5 0 0 71.96 133.19
  Q 71.71 132.58 70.86 132.70
  C 66.37 133.29 68.26 140.05 73.08 136.45
  A 0.89 0.88 53.6 0 0 73.26 135.22
  L 73.08 134.98
  Q 72.77 134.56 72.30 134.80
  L 69.80 136.09
  A 0.44 0.44 0.0 0 1 69.36 135.33
  Z
  M 221.82 133.67
  L 225.49 135.86
  A 0.11 0.11 0.0 0 0 225.64 135.82
  L 225.68 135.76
  A 2.11 1.76 30.8 0 0 224.77 133.17
  L 224.53 133.03
  A 2.11 1.76 30.8 0 0 221.81 133.46
  L 221.78 133.52
  A 0.11 0.11 0.0 0 0 221.82 133.67
  Z
  M 225.16 136.53
  L 221.21 134.42
  A 0.11 0.11 0.0 0 0 221.06 134.47
  L 221.04 134.51
  A 2.25 1.98 28.1 0 0 222.09 137.32
  L 222.26 137.41
  A 2.25 1.98 28.1 0 0 225.18 136.72
  L 225.21 136.68
  A 0.11 0.11 0.0 0 0 225.16 136.53
  Z
  M 81.64 165.01
  Q 81.35 165.17 79.94 164.71
  Q 70.65 161.63 68.20 152.47
  A 0.95 0.95 0.0 0 0 66.40 152.36
  C 64.27 157.58 67.83 163.29 71.76 166.42
  C 76.05 169.82 80.06 168.75 84.31 166.06
  C 92.49 160.90 103.28 151.89 93.69 141.99
  C 85.35 133.38 78.44 141.74 71.92 146.85
  A 2.14 2.13 66.5 0 0 71.14 148.85
  Q 72.66 158.66 81.57 162.90
  Q 83.67 163.90 81.64 165.01
  Z
  M 212.21 164.66
  A 0.86 0.86 0.0 0 1 212.15 163.09
  Q 220.93 158.80 222.82 149.64
  C 223.28 147.43 222.19 146.99 220.69 145.80
  Q 216.86 142.75 212.92 139.85
  C 205.84 134.62 196.22 143.39 196.82 150.82
  C 197.36 157.50 203.26 161.12 207.90 164.90
  C 211.43 167.78 217.22 169.95 221.20 167.17
  C 225.59 164.10 229.79 158.07 227.55 152.28
  A 0.92 0.92 0.0 0 0 225.80 152.41
  Q 223.78 161.67 214.26 164.63
  Q 213.07 165.00 212.21 164.66
  Z
  M 67.2081 139.2639
  A 1.51 1.51 0.0 0 0 65.0984 138.9336
  L 63.9349 139.7820
  A 1.51 1.51 0.0 0 0 63.6045 141.8918
  L 64.5119 143.1361
  A 1.51 1.51 0.0 0 0 66.6216 143.4664
  L 67.7851 142.6180
  A 1.51 1.51 0.0 0 0 68.1155 140.5082
  L 67.2081 139.2639
  Z
  M 229.18 142.34
  L 226.33 140.88
  A 0.56 0.56 0.0 0 0 225.57 141.61
  Q 226.22 143.03 227.85 143.79
  A 2.81 2.09 -87.8 0 0 230.59 140.38
  Q 230.40 139.43 228.73 138.89
  Q 227.18 138.39 226.67 139.52
  Q 226.43 140.03 226.96 140.23
  Q 228.33 140.75 229.63 141.51
  A 0.47 0.47 0.0 0 1 229.18 142.34
  Z
  M 28.23 207.34
  L 32.08 204.97
  A 0.13 0.13 0.0 0 0 32.13 204.79
  L 32.10 204.76
  A 2.20 1.77 -31.6 0 0 29.30 204.40
  L 28.98 204.60
  A 2.20 1.77 -31.6 0 0 28.03 207.26
  L 28.05 207.30
  A 0.13 0.13 0.0 0 0 28.23 207.34
  Z
  M 265.04 208.04
  Q 262.94 207.74 261.56 206.18
  A 0.36 0.36 0.0 0 0 260.96 206.27
  C 259.87 208.82 265.24 211.15 266.27 207.10
  C 266.76 205.15 264.29 203.83 262.73 204.15
  A 0.60 0.59 -36.3 0 0 262.56 205.25
  L 265.43 206.87
  A 0.63 0.63 0.0 0 1 265.04 208.04
  Z
  M 32.90 206.01
  L 28.81 208.32
  A 0.15 0.15 0.0 0 0 28.76 208.53
  L 28.80 208.61
  A 2.22 1.72 -29.5 0 0 31.58 209.01
  L 32.07 208.74
  A 2.22 1.72 -29.5 0 0 33.15 206.14
  L 33.11 206.07
  A 0.15 0.15 0.0 0 0 32.90 206.01
  Z"
/>
<rect fill="#b2b0b3" x="-61.65" y="-0.81" transform="translate(141.38,38.34) rotate(28.7)" width="123.30" height="1.62" rx="0.79"/>
<rect fill="#b2b0b3" x="-31.26" y="-0.80" transform="translate(179.48,23.70) rotate(-28.7)" width="62.52" height="1.60" rx="0.78"/>
<path fill="#b2b0b3" d="
  M 191.00 76.49
  Q 190.89 76.32 190.69 76.84
  Q 190.56 76.72 190.25 76.72
  A 1.18 1.14 58.2 0 1 189.70 76.58
  L 82.99 18.32
  Q 82.51 18.06 82.51 17.52
  Q 82.51 17.14 83.05 16.99
  Q 83.73 16.79 84.35 17.13
  Q 137.13 46.05 190.02 74.96
  Q 190.86 75.42 191.00 76.49
  Z"
/>
<rect fill="#b2b0b3" x="-28.03" y="-0.80" transform="translate(186.82,30.61) rotate(-28.7)" width="56.06" height="1.60" rx="0.77"/>
<path fill="#929193" d="
  M 108.97 35.63
  C 111.40 33.80 114.15 36.06 114.55 38.61
  Q 114.63 39.12 115.09 39.38
  Q 144.79 55.86 174.68 71.96
  C 179.10 74.34 184.25 75.30 188.77 78.74
  Q 189.17 79.05 188.72 79.29
  Q 188.49 79.41 188.24 79.27
  C 181.56 75.46 174.34 73.33 168.83 70.25
  Q 141.40 54.94 113.69 39.86
  A 0.86 0.84 7.6 0 1 113.27 39.32
  L 112.72 36.98
  Q 112.58 36.39 111.98 36.26
  Q 110.09 35.85 109.09 36.78
  Q 108.65 37.20 108.11 36.91
  L 100.45 32.86
  A 0.88 0.87 16.4 0 1 99.99 32.03
  Q 100.01 31.80 100.00 31.60
  Q 99.98 31.03 100.47 31.31
  L 108.07 35.68
  Q 108.54 35.95 108.97 35.63
  Z"
/>
<path fill="#929193" d="
  M 179.96 38.88
  A 0.43 0.43 0.0 0 0 179.98 38.13
  L 179.46 37.82
  A 0.52 0.52 0.0 0 1 179.48 36.92
  L 183.24 34.81
  Q 183.69 34.56 184.09 34.88
  L 185.20 35.77
  Q 185.51 36.01 185.85 35.81
  L 193.65 31.34
  Q 194.46 30.88 194.18 31.77
  Q 193.94 32.56 193.21 32.98
  Q 189.59 35.05 185.82 36.89
  Q 185.34 37.12 184.89 36.83
  L 183.53 35.95
  A 0.93 0.90 -36.0 0 0 182.77 35.84
  Q 180.55 36.49 181.21 38.57
  A 0.82 0.81 67.0 0 1 180.83 39.53
  L 167.38 46.95
  A 0.42 0.42 0.0 0 1 166.77 46.46
  Q 166.88 46.09 167.18 45.92
  Q 173.51 42.35 179.96 38.88
  Z"
/>
<path fill="#000000" d="
  M 268.40 46.47
  L 268.90 45.23
  A 0.50 0.50 0.0 0 1 269.84 45.27
  L 269.95 45.61
  Q 270.09 46.05 269.74 46.36
  L 267.49 48.31
  Q 267.19 48.56 266.91 48.29
  L 266.71 48.08
  Q 266.40 47.78 266.79 47.59
  L 267.79 47.11
  Q 268.22 46.91 268.40 46.47
  Z"
/>
<rect fill="#b2b0b3" x="-16.24" y="-0.75" transform="translate(112.75,60.18) rotate(-28.7)" width="32.48" height="1.50" rx="0.63"/>
<rect fill="#b2b0b3" x="-19.41" y="-0.75" transform="translate(120.17,67.07) rotate(-28.7)" width="38.82" height="1.50" rx="0.40"/>
<path fill="#929193" d="
  M 105.93 78.47
  Q 109.47 75.64 113.71 74.32
  C 122.76 71.52 132.44 64.96 140.83 60.35
  Q 141.23 60.13 141.51 60.24
  A 0.48 0.48 0.0 0 1 141.56 61.11
  Q 129.83 67.43 118.12 73.82
  C 116.48 74.72 115.07 74.91 113.28 75.26
  C 111.05 75.70 108.50 78.02 106.17 78.90
  Q 104.67 79.47 105.93 78.47
  Z"
/>
<path fill="#929193" d="
  M 91.98 82.53
  Q 95.59 80.34 101.50 77.25
  Q 101.73 77.13 101.94 77.39
  Q 102.20 77.72 101.84 77.92
  L 92.32 83.23
  A 0.66 0.65 60.7 0 0 92.07 84.13
  L 96.56 91.95
  A 0.71 0.70 61.2 0 0 97.50 92.23
  L 99.75 91.05
  A 0.55 0.54 -30.1 0 1 100.47 91.24
  L 102.35 94.19
  A 0.88 0.87 -21.8 0 0 103.25 94.57
  Q 105.89 94.04 107.67 92.03
  A 0.86 0.85 -39.0 0 0 107.78 91.04
  L 106.26 88.37
  A 0.72 0.72 0.0 0 1 106.54 87.39
  L 107.40 86.92
  A 0.72 0.72 0.0 0 1 108.38 87.21
  C 111.81 93.71 104.08 96.79 99.71 98.87
  A 0.81 0.81 0.0 0 1 98.65 98.53
  L 84.24 72.48
  Q 83.58 71.28 84.71 70.51
  Q 89.60 67.14 95.56 66.82
  A 0.36 0.36 0.0 0 1 95.75 67.50
  L 86.58 72.45
  Q 85.99 72.77 86.31 73.36
  L 91.10 82.30
  Q 91.41 82.88 91.98 82.53
  Z"
/>
<path fill="#929193" d="
  M 190.69 76.84
  Q 190.89 76.32 191.00 76.49
  L 202.22 82.48
  Q 202.73 82.75 203.00 82.24
  L 207.69 73.58
  A 1.05 1.05 0.0 0 0 207.25 72.15
  L 198.29 67.49
  A 0.36 0.36 0.0 0 1 198.49 66.81
  Q 204.75 67.34 209.83 70.95
  Q 210.35 71.32 210.05 71.89
  L 195.70 98.13
  A 1.35 1.35 0.0 0 1 193.89 98.67
  C 189.86 96.51 181.84 93.34 185.81 87.08
  Q 186.16 86.53 186.68 86.94
  L 187.55 87.63
  A 0.77 0.76 36.0 0 1 187.72 88.65
  L 186.31 90.81
  A 0.81 0.80 -44.7 0 0 186.30 91.69
  Q 187.92 94.29 191.00 94.56
  A 0.84 0.82 19.0 0 0 191.76 94.20
  L 193.48 91.66
  Q 193.74 91.27 194.21 91.24
  Q 195.33 91.15 195.99 92.08
  A 0.89 0.89 0.0 0 0 197.50 92.00
  L 201.98 84.00
  A 0.60 0.59 -60.6 0 0 201.76 83.20
  L 190.69 76.84
  Z"
/>
<path fill="#929193" d="
  M 46.19 94.69
  Q 46.79 95.67 46.76 96.78
  Q 46.74 97.50 46.18 97.04
  Q 44.87 95.96 44.24 94.37
  A 0.92 0.92 0.0 0 1 44.66 93.22
  L 82.74 72.32
  Q 83.16 72.09 83.35 72.53
  L 84.16 74.39
  A 0.62 0.62 0.0 0 1 83.66 75.26
  Q 83.03 75.33 82.68 74.81
  Q 82.44 74.43 82.04 74.64
  L 46.57 93.32
  A 0.98 0.97 60.6 0 0 46.19 94.69
  Z"
/>
<path fill="#929193" d="
  M 249.87 94.47
  L 247.97 97.30
  A 0.55 0.55 0.0 0 1 247.00 96.79
  L 247.95 94.34
  Q 248.18 93.76 247.63 93.46
  L 212.20 74.69
  A 0.65 0.64 -48.0 0 0 211.52 74.73
  Q 210.63 75.39 209.88 74.66
  A 1.58 1.30 -3.2 0 1 211.99 72.72
  L 249.57 93.25
  A 0.85 0.85 0.0 0 1 249.87 94.47
  Z"
/>
<path fill="#b2b0b3" d="
  M 60.94 89.52
  Q 60.24 89.39 60.10 88.63
  A 0.78 0.77 88.0 0 1 60.95 87.71
  C 66.61 88.39 78.17 80.70 83.24 77.78
  A 0.86 0.86 0.0 0 1 84.43 78.11
  Q 84.80 78.77 83.81 79.32
  C 78.92 82.04 66.10 90.52 60.94 89.52
  Z"
/>
<path fill="#b2b0b3" d="
  M 233.35 87.82
  A 0.68 0.68 0.0 0 1 234.02 88.66
  C 233.31 91.54 227.43 88.68 225.56 87.69
  Q 218.68 84.05 211.95 80.12
  C 211.18 79.67 209.97 79.38 209.73 78.26
  A 0.53 0.52 8.4 0 1 210.50 77.69
  C 216.42 80.98 226.70 87.92 233.35 87.82
  Z"
/>
<path fill="#929193" d="
  M 119.06 78.01
  Q 118.57 79.78 116.82 80.63
  Q 116.36 80.86 116.46 81.36
  L 116.74 82.74
  Q 116.84 83.25 116.32 83.19
  L 114.53 82.97
  L 114.24 82.77
  Q 113.95 82.57 114.21 82.34
  L 119.06 78.01
  Z"
/>
<path fill="#929193" d="
  M 110.71 84.33
  Q 110.10 85.69 110.19 87.85
  Q 108.46 86.76 109.00 85.00
  Q 109.49 83.42 110.71 84.33
  Z"
/>
<ellipse fill="#b2b0b3" cx="0.00" cy="0.00" transform="translate(89.66,85.90) rotate(55.9)" rx="1.70" ry="0.88"/>
<ellipse fill="#b2b0b3" cx="0.00" cy="0.00" transform="translate(204.34,85.92) rotate(121.7)" rx="1.67" ry="0.80"/>
<path fill="#929193" d="
  M 69.55 105.59
  A 0.75 0.75 0.0 0 0 70.53 105.83
  L 92.24 93.93
  Q 92.80 93.62 93.09 94.20
  L 93.92 95.82
  A 0.83 0.83 0.0 0 0 94.80 96.27
  Q 96.05 96.05 96.56 96.93
  Q 100.15 103.06 103.18 108.79
  A 1.43 1.43 0.0 0 1 102.60 110.72
  L 78.80 123.75
  A 0.60 0.59 74.5 0 1 77.92 123.25
  C 77.79 119.49 79.83 117.55 83.07 115.59
  Q 91.10 110.72 99.43 106.36
  A 0.59 0.59 0.0 0 0 99.67 105.55
  L 95.30 97.77
  Q 95.00 97.23 94.46 97.54
  Q 86.16 102.31 77.79 106.78
  Q 74.84 108.36 72.94 108.30
  C 69.34 108.17 66.32 103.62 68.51 100.39
  Q 69.38 99.11 71.99 97.67
  Q 80.44 93.01 88.91 88.37
  Q 89.42 88.09 89.76 88.57
  L 91.25 90.71
  A 1.02 1.01 -32.1 0 1 90.91 92.18
  L 69.27 103.97
  Q 68.68 104.29 69.06 104.85
  L 69.55 105.59
  Z
  M 101.56 108.96
  L 100.67 107.41
  A 0.68 0.68 0.0 0 0 99.75 107.17
  L 92.58 111.30
  A 16.59 1.09 -30.0 0 0 78.76 120.54
  L 79.24 121.37
  A 16.59 1.09 -30.0 0 0 94.15 114.02
  L 101.32 109.88
  A 0.68 0.68 0.0 0 0 101.56 108.96
  Z"
/>
<path fill="#929193" d="
  M 225.02 103.94
  Q 214.79 98.83 204.82 93.06
  Q 203.15 92.09 202.99 91.03
  Q 202.78 89.64 204.57 88.50
  Q 204.93 88.27 205.30 88.47
  Q 213.86 93.14 222.42 97.87
  C 229.97 102.03 224.25 110.74 218.28 107.64
  Q 208.79 102.70 199.68 97.73
  Q 198.93 97.32 198.51 98.07
  L 194.35 105.63
  A 0.66 0.66 0.0 0 0 194.63 106.54
  Q 203.67 111.21 212.39 116.64
  Q 216.13 118.96 216.11 123.08
  A 0.67 0.67 0.0 0 1 215.12 123.67
  L 191.94 110.89
  Q 190.23 109.94 191.17 108.23
  L 197.45 96.81
  Q 197.75 96.25 198.39 96.25
  Q 200.43 96.26 200.86 94.19
  A 0.57 0.56 19.9 0 1 201.68 93.81
  L 223.30 105.76
  Q 223.95 106.11 224.39 105.53
  L 225.16 104.53
  Q 225.45 104.15 225.02 103.94
  Z
  M 193.39 107.24
  L 192.36 109.05
  A 0.72 0.72 0.0 0 0 192.62 110.03
  L 192.69 110.07
  A 24.66 1.15 29.8 0 0 214.66 121.33
  L 215.27 120.27
  A 24.66 1.15 29.8 0 0 194.44 107.01
  L 194.37 106.97
  A 0.72 0.72 0.0 0 0 193.39 107.24
  Z"
/>
<rect fill="#929193" x="-2.14" y="-2.14" transform="translate(103.95,90.91) rotate(-39.0)" width="4.28" height="4.28" rx="1.43"/>
<circle fill="#929193" cx="190.08" cy="90.92" r="2.28"/>
<path fill="#929193" d="
  M 61.86 96.50
  L 63.11 96.50
  A 0.98 0.96 -12.4 0 1 63.99 97.05
  L 64.73 98.63
  Q 65.06 99.34 64.38 99.73
  L 59.89 102.34
  Q 59.30 102.68 58.91 102.12
  L 57.54 100.12
  Q 57.13 99.52 57.72 99.12
  L 58.46 98.62
  A 0.63 0.63 0.0 0 0 58.64 97.77
  L 57.64 96.09
  A 1.78 1.34 -84.5 0 1 59.76 93.77
  L 61.29 96.19
  A 0.68 0.68 0.0 0 0 61.86 96.50
  Z"
/>
<path fill="#b2b0b3" d="
  M 232.88 96.18
  L 234.33 93.86
  A 1.57 1.42 79.7 0 1 236.70 95.69
  L 235.41 97.82
  A 0.66 0.65 -52.5 0 0 235.51 98.63
  L 236.38 99.51
  A 0.60 0.60 0.0 0 1 236.44 100.30
  L 235.09 102.13
  Q 234.69 102.67 234.11 102.32
  L 229.55 99.57
  A 0.63 0.62 -71.0 0 1 229.25 98.94
  Q 229.61 96.27 232.27 96.48
  Q 232.66 96.51 232.88 96.18
  Z"
/>
<path fill="#929193" d="
  M 250.14 120.37
  Q 243.25 123.38 235.71 123.65
  A 0.39 0.39 0.0 0 1 235.36 123.07
  Q 240.91 113.12 246.35 102.89
  Q 247.14 101.39 248.26 100.13
  Q 248.59 99.77 248.93 100.12
  C 252.26 103.55 255.56 107.89 255.24 112.89
  C 254.55 123.70 244.21 130.16 233.89 128.32
  Q 233.45 128.24 233.29 127.83
  Q 233.20 127.61 233.27 127.41
  Q 233.42 126.99 233.86 127.05
  Q 243.98 128.47 250.69 121.13
  A 0.48 0.48 0.0 0 0 250.14 120.37
  Z"
/>
<path fill="#929193" d="
  M 43.76 120.24
  A 0.54 0.54 0.0 0 0 43.22 121.14
  Q 50.12 128.33 59.86 127.07
  Q 60.40 127.00 60.61 127.23
  Q 60.77 127.40 60.78 127.66
  Q 60.80 128.18 60.29 128.24
  C 48.01 129.77 38.94 123.04 38.74 110.51
  Q 38.70 107.96 40.98 106.30
  A 1.84 1.83 -6.2 0 0 41.58 105.56
  Q 42.92 102.58 45.21 100.22
  Q 45.66 99.75 45.98 100.32
  L 58.55 122.95
  Q 58.84 123.48 58.24 123.47
  C 52.60 123.39 48.91 121.73 43.76 120.24
  Z"
/>
<path fill="#000000" d="
  M 101.56 108.96
  A 0.68 0.68 0.0 0 1 101.32 109.88
  L 94.15 114.02
  A 16.59 1.09 -30.0 0 1 79.24 121.37
  L 78.76 120.54
  A 16.59 1.09 -30.0 0 1 92.58 111.30
  L 99.75 107.17
  A 0.68 0.68 0.0 0 1 100.67 107.41
  L 101.56 108.96
  Z"
/>
<path fill="#000000" d="
  M 193.39 107.24
  A 0.72 0.72 0.0 0 1 194.37 106.97
  L 194.44 107.01
  A 24.66 1.15 29.8 0 1 215.27 120.27
  L 214.66 121.33
  A 24.66 1.15 29.8 0 1 192.69 110.07
  L 192.62 110.03
  A 0.72 0.72 0.0 0 1 192.36 109.05
  L 193.39 107.24
  Z"
/>
<path fill="#929193" d="
  M 72.88 114.52
  A 1.73 1.73 0.0 0 1 73.64 117.86
  Q 71.76 118.54 70.33 120.00
  A 2.22 1.81 -86.9 0 1 67.95 116.73
  Q 68.96 115.54 67.72 114.53
  A 1.08 1.07 -69.8 0 1 67.33 113.68
  Q 67.38 111.78 69.24 111.71
  A 0.88 0.87 82.5 0 1 70.13 112.40
  Q 70.64 114.74 72.88 114.52
  Z"
/>
<path fill="#929193" d="
  M 225.58 116.45
  L 226.31 117.18
  A 0.77 0.77 0.0 0 1 226.40 118.15
  L 225.35 119.73
  Q 224.97 120.31 224.37 119.97
  L 219.98 117.55
  A 0.71 0.70 17.7 0 1 219.61 116.84
  Q 219.89 114.24 222.48 114.48
  A 0.70 0.69 12.3 0 0 223.20 114.02
  Q 223.60 112.78 224.23 112.10
  A 1.48 1.48 0.0 0 1 226.54 113.93
  L 225.48 115.51
  Q 225.14 116.02 225.58 116.45
  Z"
/>
<path fill="#b2b0b3" d="
  M 26.41 156.32
  L 22.30 158.62
  Q 21.94 158.83 21.88 158.41
  Q 21.82 157.86 22.32 157.58
  Q 32.93 151.72 43.21 145.99
  A 1.06 1.05 61.2 0 1 44.65 146.41
  L 50.14 156.41
  A 0.70 0.69 -32.6 0 0 51.16 156.63
  L 103.87 117.86
  A 0.55 0.55 0.0 0 1 104.74 118.27
  Q 104.76 118.62 104.41 118.88
  Q 78.48 137.98 51.88 157.54
  A 1.68 1.68 0.0 0 1 49.41 157.00
  L 44.18 147.55
  A 0.90 0.89 61.4 0 0 42.98 147.19
  C 39.18 149.18 34.17 151.45 31.02 154.50
  C 23.71 161.60 18.65 173.44 17.25 183.23
  Q 16.35 189.56 17.65 200.23
  C 19.84 218.15 23.70 235.58 27.03 253.08
  A 0.95 0.95 0.0 0 0 28.48 253.70
  Q 44.91 243.02 62.98 235.45
  A 1.01 1.01 0.0 0 0 63.34 233.84
  Q 53.82 223.40 46.34 211.00
  C 40.03 200.55 37.92 190.96 40.65 179.45
  Q 43.15 168.97 52.43 163.48
  C 52.87 163.22 53.53 163.21 53.99 163.26
  A 0.35 0.35 0.0 0 1 54.10 163.92
  C 37.87 171.50 38.07 194.24 45.28 207.58
  C 49.14 214.74 57.23 225.34 63.53 232.48
  Q 64.65 233.74 64.76 235.06
  A 0.94 0.93 -16.5 0 1 64.27 235.96
  Q 63.51 236.38 62.03 237.01
  Q 45.23 244.14 28.27 255.21
  A 0.93 0.93 0.0 0 1 27.31 255.25
  C 25.68 254.34 25.74 252.86 25.44 251.30
  Q 22.22 234.92 19.24 218.50
  C 15.16 195.98 11.79 176.56 27.31 157.39
  A 0.71 0.71 0.0 0 0 26.41 156.32
  Z"
/>
<path fill="#b2b0b3" d="
  M 266.34 254.08
  Q 266.70 254.31 266.79 253.89
  Q 272.10 229.12 276.09 204.07
  Q 276.98 198.49 277.32 192.87
  C 278.15 179.30 273.13 166.74 264.53 156.21
  C 260.91 151.76 255.91 149.83 251.22 147.15
  A 1.00 1.00 0.0 0 0 249.84 147.54
  L 244.67 157.03
  A 1.61 1.61 0.0 0 1 242.30 157.56
  L 189.17 118.61
  A 0.44 0.44 0.0 0 1 189.38 117.82
  Q 189.96 117.76 190.55 118.19
  Q 216.49 137.20 242.52 156.41
  Q 243.49 157.12 244.07 156.06
  L 249.21 146.58
  A 1.23 1.23 0.0 0 1 250.88 146.09
  L 272.27 157.82
  Q 272.62 158.02 272.43 158.38
  Q 272.17 158.85 271.50 158.50
  Q 269.79 157.62 267.93 156.40
  A 0.78 0.78 0.0 0 0 266.90 157.55
  C 281.01 174.79 279.17 193.05 275.45 214.24
  Q 272.07 233.56 268.14 254.08
  A 1.43 1.43 0.0 0 1 266.01 255.05
  C 254.33 248.17 242.70 241.60 230.05 236.10
  A 1.46 1.46 0.0 0 1 229.51 233.82
  C 238.13 223.54 250.15 209.81 252.86 196.26
  C 255.25 184.30 251.74 170.18 240.05 164.12
  Q 239.55 163.86 239.95 163.46
  Q 240.52 162.90 241.22 163.26
  C 254.23 170.07 256.75 186.57 253.06 199.49
  C 249.83 210.81 239.03 224.41 230.58 234.11
  A 0.74 0.74 0.0 0 0 230.85 235.28
  Q 249.33 243.29 266.34 254.08
  Z"
/>
<path fill="#929193" d="
  M 33.72 118.12
  Q 33.97 118.03 34.26 118.33
  Q 34.43 118.51 34.52 118.83
  Q 36.08 124.28 40.51 128.59
  A 0.69 0.69 0.0 0 0 41.62 128.37
  C 42.27 126.89 43.78 126.99 45.00 127.86
  Q 52.37 133.06 60.77 129.23
  Q 61.31 128.99 61.62 129.50
  L 61.77 129.75
  Q 62.02 130.18 61.56 130.36
  Q 52.25 134.02 44.14 128.75
  A 1.29 1.29 0.0 0 0 42.31 129.20
  Q 40.82 131.85 38.36 133.67
  Q 38.15 133.82 37.99 133.63
  Q 37.90 133.52 37.81 133.43
  A 0.09 0.09 0.0 0 1 37.81 133.30
  Q 39.28 131.99 40.26 130.28
  A 0.80 0.80 0.0 0 0 40.07 129.28
  Q 35.17 125.29 33.53 119.24
  Q 33.33 118.51 33.72 118.12
  Z"
/>
<path fill="#929193" d="
  M 65.96 129.36
  Q 69.86 127.51 73.56 125.30
  Q 73.89 125.10 74.18 125.57
  A 0.57 0.57 0.0 0 1 73.97 126.36
  L 65.29 131.17
  Q 64.65 131.53 64.32 130.88
  L 62.60 127.58
  A 0.73 0.73 0.0 0 1 63.88 126.89
  L 65.07 129.07
  Q 65.38 129.64 65.96 129.36
  Z"
/>
<path fill="#929193" d="
  M 228.07 129.34
  A 0.57 0.57 0.0 0 0 228.82 129.15
  L 230.54 126.58
  A 0.56 0.56 0.0 0 1 231.52 127.12
  L 229.79 130.99
  A 0.58 0.58 0.0 0 1 229.00 131.27
  Q 226.89 130.20 221.37 127.12
  Q 220.40 126.58 220.10 125.85
  A 0.38 0.37 3.2 0 1 220.63 125.38
  L 228.07 129.34
  Z"
/>
<path fill="#b2b0b3" d="
  M 69.80 136.09
  L 72.30 134.80
  Q 72.77 134.56 73.08 134.98
  L 73.26 135.22
  A 0.89 0.88 53.6 0 1 73.08 136.45
  C 68.26 140.05 66.37 133.29 70.86 132.70
  Q 71.71 132.58 71.96 133.19
  A 0.53 0.52 63.5 0 1 71.75 133.83
  L 69.36 135.33
  A 0.44 0.44 0.0 0 0 69.80 136.09
  Z"
/>
<path fill="#b2b0b3" d="
  M 221.82 133.67
  A 0.11 0.11 0.0 0 1 221.78 133.52
  L 221.81 133.46
  A 2.11 1.76 30.8 0 1 224.53 133.03
  L 224.77 133.17
  A 2.11 1.76 30.8 0 1 225.68 135.76
  L 225.64 135.82
  A 0.11 0.11 0.0 0 1 225.49 135.86
  L 221.82 133.67
  Z"
/>
<path fill="#b2b0b3" d="
  M 225.16 136.53
  A 0.11 0.11 0.0 0 1 225.21 136.68
  L 225.18 136.72
  A 2.25 1.98 28.1 0 1 222.26 137.41
  L 222.09 137.32
  A 2.25 1.98 28.1 0 1 221.04 134.51
  L 221.06 134.47
  A 0.11 0.11 0.0 0 1 221.21 134.42
  L 225.16 136.53
  Z"
/>
<path fill="#b2b0b3" d="
  M 68.1155 140.5082
  A 1.51 1.51 0.0 0 1 67.7851 142.6180
  L 66.6216 143.4664
  A 1.51 1.51 0.0 0 1 64.5119 143.1361
  L 63.6045 141.8918
  A 1.51 1.51 0.0 0 1 63.9349 139.7820
  L 65.0984 138.9336
  A 1.51 1.51 0.0 0 1 67.2081 139.2639
  L 68.1155 140.5082
  Z
  M 66.80 141.35
  A 0.62 0.62 0.0 0 0 66.01 140.40
  L 65.22 140.93
  A 0.58 0.58 0.0 0 0 65.66 141.98
  Q 66.31 141.86 66.80 141.35
  Z"
/>
<path fill="#b2b0b3" d="
  M 229.63 141.51
  Q 228.33 140.75 226.96 140.23
  Q 226.43 140.03 226.67 139.52
  Q 227.18 138.39 228.73 138.89
  Q 230.40 139.43 230.59 140.38
  A 2.81 2.09 -87.8 0 1 227.85 143.79
  Q 226.22 143.03 225.57 141.61
  A 0.56 0.56 0.0 0 1 226.33 140.88
  L 229.18 142.34
  A 0.47 0.47 0.0 0 0 229.63 141.51
  Z"
/>
<path fill="#000000" d="
  M 66.80 141.35
  Q 66.31 141.86 65.66 141.98
  A 0.58 0.58 0.0 0 1 65.22 140.93
  L 66.01 140.40
  A 0.62 0.62 0.0 0 1 66.80 141.35
  Z"
/>
<path fill="#b2b0b3" d="
  M 28.23 207.34
  A 0.13 0.13 0.0 0 1 28.05 207.30
  L 28.03 207.26
  A 2.20 1.77 -31.6 0 1 28.98 204.60
  L 29.30 204.40
  A 2.20 1.77 -31.6 0 1 32.10 204.76
  L 32.13 204.79
  A 0.13 0.13 0.0 0 1 32.08 204.97
  L 28.23 207.34
  Z"
/>
<path fill="#b2b0b3" d="
  M 265.43 206.87
  L 262.56 205.25
  A 0.60 0.59 -36.3 0 1 262.73 204.15
  C 264.29 203.83 266.76 205.15 266.27 207.10
  C 265.24 211.15 259.87 208.82 260.96 206.27
  A 0.36 0.36 0.0 0 1 261.56 206.18
  Q 262.94 207.74 265.04 208.04
  A 0.63 0.63 0.0 0 0 265.43 206.87
  Z"
/>
<path fill="#b2b0b3" d="
  M 32.90 206.01
  A 0.15 0.15 0.0 0 1 33.11 206.07
  L 33.15 206.14
  A 2.22 1.72 -29.5 0 1 32.07 208.74
  L 31.58 209.01
  A 2.22 1.72 -29.5 0 1 28.80 208.61
  L 28.76 208.53
  A 0.15 0.15 0.0 0 1 28.81 208.32
  L 32.90 206.01
  Z"
/>
</svg>
